<?xml version="1.0" encoding="UTF-8" standalone="no"?>
<!-- Created with Inkscape (http://www.inkscape.org/) -->

<svg
   xmlns:dc="http://purl.org/dc/elements/1.1/"
   xmlns:cc="http://creativecommons.org/ns#"
   xmlns:rdf="http://www.w3.org/1999/02/22-rdf-syntax-ns#"
   xmlns:svg="http://www.w3.org/2000/svg"
   xmlns="http://www.w3.org/2000/svg"
   xmlns:sodipodi="http://sodipodi.sourceforge.net/DTD/sodipodi-0.dtd"
   xmlns:inkscape="http://www.inkscape.org/namespaces/inkscape"
   id="svg3782"
   version="1.1"
   inkscape:version="0.91 r13725"
   width="500"
   height="500"
   viewBox="0 0 500 500"
   sodipodi:docname="chameleon.svg">
  <metadata
     id="metadata3788">
    <rdf:RDF>
      <cc:Work
         rdf:about="">
        <dc:format>image/svg+xml</dc:format>
        <dc:type
           rdf:resource="http://purl.org/dc/dcmitype/StillImage" />
        <dc:title></dc:title>
      </cc:Work>
    </rdf:RDF>
  </metadata>
  <defs
     id="defs3786" />
  <sodipodi:namedview
     pagecolor="#ffffff"
     bordercolor="#666666"
     borderopacity="1"
     objecttolerance="10"
     gridtolerance="10"
     guidetolerance="10"
     inkscape:pageopacity="0"
     inkscape:pageshadow="2"
     inkscape:window-width="2560"
     inkscape:window-height="1392"
     id="namedview3784"
     showgrid="false"
     inkscape:zoom="2.452"
     inkscape:cx="250"
     inkscape:cy="250"
     inkscape:window-x="0"
     inkscape:window-y="0"
     inkscape:window-maximized="1"
     inkscape:current-layer="svg3782" />
  <g
     id="g3792">
    <path
       style="fill:#313131"
       d="M 437.95201,443.10566 C 355.48445,432.57071 300.2013,422.44559 250,408.68219 167.07367,385.94677 132.39405,377.94275 98.125,373.62957 82.3125,371.63938 62.34375,368.59574 53.75,366.86593 34.594801,363.01022 9.835236,356.58524 8.3295215,355.07952 c -0.61166,-0.61166 -1.4055472,-3.71548 -1.7641941,-6.89739 -0.9673893,-8.58266 0.4229533,-9.18495 21.5458326,-9.33368 16.020665,-0.11281 30.712993,-1.90674 30.588573,-3.73486 -0.02765,-0.40623 -3.465827,-3.26984 -7.640399,-6.36359 C 46.884761,325.65625 40.153442,319.52373 36.100847,315.12216 28.987678,307.39649 20,291.96917 20,287.48511 20,284.76354 18.158422,283.27202 12.1875,281.15766 9.609375,280.24473 7.5,279.04827 7.5,278.49889 c 0,-1.33337 0.2348062,-1.2955 5.432196,0.87611 2.468129,1.03125 4.734765,1.875 5.036969,1.875 0.302204,0 0.742145,-3.04055 0.977647,-6.75679 l 0.428188,-6.75679 -5.517183,-3.48748 c -3.034451,-1.91812 -4.879225,-3.70014 -4.0994982,-3.96005 0.7797262,-0.2599 3.2624592,0.89035 5.5171822,2.55612 2.254725,1.66577 7.367248,4.86123 11.361163,7.101 3.993913,2.23978 6.976329,4.35766 6.627586,4.7064 -0.348741,0.34875 -3.194615,-0.79703 -6.324163,-2.54617 C 23.810539,270.3571 21.25,269.23793 21.25,269.61919 c 0,0.38126 1.454619,3.93452 3.232486,7.89614 2.496875,5.56377 4.55921,8.06279 9.0625,10.98142 5.373756,3.48277 16.72291,14.57506 25.876909,25.29124 13.970881,16.35507 69.244055,34.62707 134.007385,44.29966 16.43348,2.45439 17.82072,2.43022 17.82072,-0.31041 0,-7.74377 17.70887,-33.90963 29.47515,-43.5512 3.03867,-2.48995 5.52485,-4.88958 5.52485,-5.33249 0,-0.44291 -7.88156,-4.06706 -17.51459,-8.05368 l -17.51459,-7.24837 -3.27898,2.57925 c -2.9808,2.3447 -4.98014,2.57925 -21.98542,2.57925 l -18.70642,0 -3.9375,4.27911 c -4.7031,5.11113 -10.8125,12.72499 -10.8125,13.47512 0,0.29485 3.375,2.1492 7.5,4.12077 4.125,1.97158 7.5,4.05081 7.5,4.62055 0,0.56974 -3.92346,-0.93994 -8.7188,-3.35484 -4.79534,-2.41489 -9.78896,-4.39071 -11.09694,-4.39071 -1.30799,0 -3.06805,-0.83128 -3.91125,-1.84726 C 141.6064,313.04212 118.87849,301.25 116.01346,301.25 c -1.3074,0 -3.80798,-1.43089 -5.55684,-3.17975 -1.74887,-1.74886 -5.52017,-4.64289 -8.38069,-6.43116 -2.86051,-1.78829 -9.266819,-7.09416 -14.23624,-11.79085 -5.265502,-4.97652 -12.567036,-10.32309 -17.5,-12.81445 C 59.526374,261.57261 38.75,247.93217 38.75,246.29402 c 0,-0.68861 6.046875,2.73632 13.4375,7.61096 7.390625,4.87462 16.804084,10.56501 20.918799,12.6453 4.114713,2.08027 11.145963,7.30096 15.625,11.60151 4.479035,4.30055 10.877574,9.53893 14.218971,11.64087 l 6.07528,3.82169 3.0391,-3.61177 c 2.58636,-3.07372 6.75559,-5.14299 18.99967,-9.42998 1.22429,-0.42865 0.89136,-1.23764 -1.20946,-2.93876 -2.5409,-2.05751 -2.68262,-2.60775 -1.14794,-4.45693 2.38703,-2.8762 10.57,-6.92691 13.99328,-6.92691 1.74243,0 2.35133,-0.43845 1.6123,-1.16096 -0.65313,-0.63853 -17.5,-8.17098 -37.4375,-16.73878 C 67.119685,231.2661 22.28971,210.96073 17.704045,207.961 c -1.606525,-1.05092 -2.649909,-2.1818 -2.318631,-2.51307 0.331277,-0.33129 6.145707,2.17896 12.920955,5.57831 15.668137,7.86119 40.501779,18.99136 85.443631,38.29494 34.85276,14.97006 35.87591,15.31912 47.20034,16.10257 6.36642,0.44045 13.91306,1.17463 16.77028,1.63151 4.77263,0.76318 5.11297,0.63719 4.18643,-1.54977 -3.57592,-8.44043 -4.55447,-15.60711 -4.04534,-29.6271 l 0.53553,-14.7466 -3.50955,-1.81486 c -1.93027,-0.99818 -15.98867,-7.19214 -31.2409,-13.76436 C 84.914963,180.24494 66.796669,168.7656 55.965989,150 52.05879,143.23026 47.5,128.78862 47.5,123.18088 c 0,-7.48093 11.699886,-20.04124 27.693578,-29.730179 12.586896,-7.625113 20.00632,-9.844693 37.289482,-11.155451 l 15.60806,-1.183716 9.91044,-6.357281 c 20.78594,-13.333617 37.36838,-19.046142 53.13515,-18.30465 16.14226,0.75915 27.08529,8.236961 26.82069,18.327683 -0.0757,2.887446 -2.74699,10.102335 -7.03515,19.001333 -3.80221,7.890511 -6.73645,14.534471 -6.52054,14.764351 0.21591,0.22989 8.45448,-1.86752 18.30793,-4.6609 20.2762,-5.748154 33.38861,-7.914847 39.78281,-6.57371 6.15019,1.289955 6.31775,4.45412 0.39822,7.51988 -5.56793,2.88367 -6.14942,2.59407 13.83869,6.89215 14.08498,3.02872 19.52064,5.51668 19.52064,8.93481 0,0.9743 4.14001,2.04743 11.5625,2.99711 12.49715,1.59896 16.77822,3.50547 17.40902,7.75278 0.34865,2.34751 1.90745,3.02028 11.47155,4.95108 13.19964,2.66475 20.24603,6.75507 21.77027,12.6373 0.98173,3.78865 1.50437,4.09375 9.55906,5.58034 10.84954,2.00241 20.74142,5.21444 23.51989,7.63723 1.37952,1.20293 1.91373,2.90001 1.46973,4.66906 -0.66405,2.64579 -0.25795,2.80792 8.45772,3.37695 17.26977,1.12751 28.50306,10.92622 21.45458,18.71469 -1.14161,1.26147 -1.84473,2.45298 -1.5625,2.6478 0.28225,0.19481 3.53849,1.72758 7.23609,3.40615 3.69761,1.67856 7.54114,4.30067 8.54116,5.82691 2.28314,3.48451 1.07937,7.62365 -2.7207,9.35508 -2.83608,1.29221 -2.7912,1.40726 4.48187,11.4863 8.94161,12.39135 24.68551,43.59628 29.73261,58.93102 7.45214,22.64201 8.64604,34.89436 6.0875,62.47248 l -0.34535,3.72247 9.65907,1.35326 c 5.31249,0.7443 10.09374,1.81934 10.625,2.38898 0.53127,0.56963 -1.28407,0.69483 -4.03407,0.27822 -2.75,-0.41662 -8.13871,-1.1236 -11.97491,-1.57107 -6.93512,-0.80893 -6.98424,-0.79105 -8.61024,3.13445 -0.89943,2.17142 -3.24863,6.17512 -5.22043,8.89712 l -3.5851,4.94909 2.94667,0 c 1.62066,0 5.59146,1.40625 8.82398,3.125 6.32509,3.36309 9.9858,3.82702 15.03865,1.90594 1.95885,-0.74475 3.20638,-0.7635 3.20638,-0.0481 0,0.64398 -2.39063,1.82636 -5.3125,2.6275 -4.84705,1.32901 -5.8194,1.17641 -11.0982,-1.7417 -3.18213,-1.75907 -7.8089,-3.57787 -10.2817,-4.04177 -4.05018,-0.75983 -5.08785,-0.32228 -10.46431,4.41238 -6.80835,5.99564 -24.85292,15.00058 -36.03865,17.98469 -9.62464,2.56764 -31.69837,5.72343 -40.24214,5.75324 -3.60938,0.0126 -6.5625,0.26754 -6.5625,0.56652 0,0.299 0.56257,2.02333 1.25017,3.83185 0.84798,2.23032 0.82784,4.07738 -0.0626,5.74113 -1.14431,2.13816 -2.14679,2.34644 -7.81268,1.62316 -3.57496,-0.45635 -8.01265,-1.59377 -9.86155,-2.52761 -3.77512,-1.90673 -7.49677,-6.57323 -6.51247,-8.16586 0.3557,-0.57552 -6.15335,-1.04634 -14.4645,-1.04634 l -15.11119,0 2.75056,3.72034 c 5.28571,7.1493 22.93815,10.65387 53.57428,10.63621 16.95947,-0.01 23.70076,-0.50788 30,-2.21659 11.55641,-3.13477 20.67017,-7.87646 27.24202,-14.1734 3.12929,-2.99837 5.90669,-5.23451 6.17202,-4.96919 1.09582,1.09583 -3.82209,10.42094 -7.53989,14.29678 -4.218,4.3973 -8.28418,6.95912 -16.49915,10.39502 -4.91196,2.05442 -4.60383,2.08768 17.5,1.88854 21.06919,-0.18982 22.83031,-0.0261 27.69434,2.57491 5.6463,3.0193 10.43066,8.26255 10.43066,11.43112 0,1.14277 -1.31681,0.0588 -3.07924,-2.53492 -4.70485,-6.9238 -12.80157,-10.27445 -25.00785,-10.34895 -13.23957,-0.0809 -41.86181,1.5991 -51.28791,3.01022 -21.76184,3.25781 -49.68719,2.58175 -80.625,-1.95193 -11.58227,-1.69727 -42.116,-8.56262 -33.5134,-7.5353 2.59213,0.30955 4.56544,-0.82519 8.62082,-4.95732 l 5.25923,-5.35877 -4.24583,-1.96652 c -4.91697,-2.27739 -4.40418,-2.168 17.62918,3.76067 8.59375,2.31239 16.86506,4.22565 18.38069,4.2517 l 2.75567,0.0474 -2.85492,-2.85493 c -1.57021,-1.57021 -3.47363,-3.96083 -4.22979,-5.3125 -1.26571,-2.26247 -2.91332,-2.47532 -20.7542,-2.68111 -12.45137,-0.14362 -20.39832,-0.76887 -22.22969,-1.74899 -2.61213,-1.39797 -3.29815,-1.01655 -8.20905,4.56432 -2.94729,3.34936 -5.35871,6.48016 -5.35871,6.95731 0,0.47716 1.54688,1.43254 3.4375,2.12305 6.67034,2.43621 0.45778,1.4139 -10.2309,-1.68355 -12.33535,-3.57465 -23.7796,-9.02771 -31.80218,-15.1534 -3.03266,-2.31561 -6.68116,-4.2102 -8.10778,-4.2102 -5.70085,0 -52.58878,-10.2682 -70.86796,-15.5197 -28.56301,-8.20597 -56.119539,-19.22521 -73.581752,-29.42369 l -8.610848,-5.02901 -5.43054,2.01224 c -3.569296,1.32257 -11.321322,2.2296 -22.61804,2.64643 l -17.1875,0.63419 0,5.33104 c 0,3.58557 -0.6139,5.5666 -1.875,6.05054 -2.180971,0.83691 -2.477933,-0.5991 -0.527277,-2.54976 0.741246,-0.74126 1.163121,-2.96313 0.9375,-4.9375 -0.299368,-2.61971 -1.085804,-3.58978 -2.910223,-3.58978 -2.1666666,0 -2.5,0.83334 -2.5,6.25 l 0,6.25 13.125,3.4223 c 21.892382,5.70838 41.876155,9.46851 68.125,12.81836 13.75,1.75476 29.78125,4.05064 35.625,5.10193 14.52626,2.61328 69.25806,16.20122 108.35169,26.89981 42.08349,11.51683 56.69096,14.96575 89.14831,21.0486 34.5087,6.46728 66.8652,11.42702 110.625,16.95708 19.25,2.43268 35.5625,4.64952 36.25,4.92631 3.29944,1.32835 -12.2479,0.16551 -32.67299,-2.44373 z m -70.6991,-26.35825 0.3779,-3.8776 -7.74877,-0.8099 c -13.03839,-1.36278 -13.43932,-1.27361 -14.62275,3.25259 l -1.0622,4.0625 5.71395,0.76888 c 3.14268,0.42287 8.24521,0.70412 11.33896,0.625 5.34028,-0.13659 5.64413,-0.34015 6.00291,-4.02147 z m -23.83971,-1.08961 1.33266,-4.34219 -4.56042,-0.72671 c -2.50824,-0.39969 -5.55843,-0.92785 -6.7782,-1.17369 -1.53767,-0.30991 -2.97018,1.02787 -4.67134,4.36243 l -2.45359,4.80942 3.42135,0.51918 c 1.88174,0.28555 5.43634,0.60346 7.89911,0.70647 4.0821,0.17074 4.59553,-0.1964 5.81043,-4.15491 z m 40.96871,3.08101 c 0.4287,-0.69365 0.42399,-2.38115 -0.01,-3.75 -0.6615,-2.08274 -1.89837,-2.48881 -7.58115,-2.48881 -5.02885,0 -6.79076,0.45996 -6.79076,1.77276 0,0.97503 -0.34143,2.66253 -0.75874,3.75 -0.64032,1.66866 0.42109,1.97724 6.80123,1.97724 4.15799,0 7.91072,-0.56754 8.33942,-1.26119 z m -56.94411,-4.8669 2.48862,-4.87808 -7.87811,-1.37192 c -4.33295,-0.75455 -8.9924,-1.37191 -10.35434,-1.37191 -2.56466,0 -9.19397,6.00824 -9.19397,8.33264 0,1.08485 10.65545,3.17846 20.2871,3.98607 1.35144,0.11338 3.09516,-1.64769 4.6507,-4.6968 z m 71.21684,3.4134 c 6.7813,-1.56531 7.21338,-2.0116 4.78286,-4.94015 -1.28253,-1.54532 -2.96237,-1.68056 -9.375,-0.75477 -7.11296,1.02689 -7.8125,1.39792 -7.8125,4.14375 0,3.54044 2.45611,3.84757 12.40464,1.55117 z m -94.90529,-7.28448 c 2.79626,-3.53058 3.46974,-5.15069 2.29254,-5.51492 -0.91679,-0.28365 -3.57895,-1.12777 -5.91592,-1.87582 -2.33697,-0.74805 -5.461,-1.36009 -6.9423,-1.36009 -3.02386,0 -11.65673,8.18374 -10.19941,9.66878 0.82715,0.84287 11.42055,3.56293 15.3482,3.94095 0.8016,0.0771 3.2392,-2.10935 5.41689,-4.8589 z m 111.33143,2.34525 c 10.08877,-4.34009 6.98587,-7.81379 -3.78429,-4.23652 -5.78119,1.9202 -7.59218,3.92809 -5.46315,6.0571 1.29321,1.29323 2.61331,1.03333 9.24744,-1.82058 z m 11.29062,-6.16105 c 2.61692,-1.40054 9.8786,-10.76444 9.8786,-12.73842 0,-0.64805 -2.87334,1.40509 -6.38519,4.56255 -3.51186,3.15746 -7.16811,5.74084 -8.125,5.74084 -1.83656,0 -2.30759,1.51556 -0.90647,2.91666 1.17202,1.17203 2.69577,1.03952 5.53806,-0.48164 z M 371.25,404.45637 c 0,-0.9865 -0.54857,-3.2365 -1.21906,-5 -0.98749,-2.59728 -2.04857,-3.20637 -5.58576,-3.20637 -3.42163,0 -4.20657,0.41735 -3.62676,1.9283 0.63852,1.66395 0.11725,1.63139 -3.80175,-0.23747 -3.45966,-1.64981 -4.88906,-1.81844 -5.99965,-0.70786 -1.97926,1.97927 1.85373,6.17708 7.00632,7.67319 6.33298,1.83885 13.22666,1.60443 13.22666,-0.44979 z M 263.87385,399.6875 c 6.6113,-7.97649 6.60291,-7.87061 0.9529,-12.02567 l -5.1828,-3.81148 -5.62214,4.01233 c -5.56801,3.9737 -11.19635,10.32339 -10.57427,11.92954 0.38522,0.99462 11.36067,4.97287 14.10026,5.11091 1.05754,0.0532 3.90426,-2.29375 6.32605,-5.21563 z m -14.48841,-9.48424 8.43957,-7.92174 -2.52021,-3.32826 c -2.17681,-2.87475 -3.37003,-3.30641 -8.75695,-3.16789 -7.77274,0.19987 -17.25419,3.28837 -22.16615,7.22043 l -3.7433,2.99654 2.4933,2.76881 c 3.04422,3.38062 14.45865,10.11084 16.40374,9.67204 0.77573,-0.175 5.20823,-3.88298 9.85,-8.23993 z m 105.92168,4.07294 c 0.39811,-0.39809 -0.14371,-3.26981 -1.20401,-6.38161 -1.50171,-4.4073 -2.85407,-6.04484 -6.11856,-7.40883 -4.49435,-1.87786 -5.4847,-4.22215 -5.09385,-12.05784 0.1584,-3.17555 0.74044,-4.50422 1.7968,-4.10172 0.98881,0.37675 1.5625,-0.53764 1.5625,-2.49043 0,-3.74276 -0.49268,-3.79527 -5.06455,-0.53981 -1.96651,1.40029 -6.13769,3.67936 -9.26928,5.0646 -5.11251,2.26151 -6.65872,2.38444 -15.14543,1.20404 -10.48643,-1.45853 -15.36694,-1.54708 -10.52074,-0.19088 2.15721,0.60369 3.13451,1.76343 3.15571,3.74482 0.0211,1.9776 1.18746,3.36673 3.75,4.46651 4.20719,1.8056 10.178,7.7479 8.98441,8.9415 -0.43252,0.43251 -3.12995,-0.1513 -5.99428,-1.29739 -2.86434,-1.14607 -5.45817,-1.8335 -5.76407,-1.5276 -1.19976,1.19976 4.89012,10.98476 7.48738,12.03044 3.03271,1.221 36.27792,1.70426 37.43797,0.5442 z M 367.5,394.3348 c 0,-0.36582 -0.79613,-2.57055 -1.76918,-4.89938 -1.87208,-4.48052 -5.17632,-6.93544 -9.33486,-6.93544 -2.42201,0 -2.44407,0.17941 -0.57667,4.6875 1.06795,2.57812 2.51437,5.39062 3.21427,6.25 1.22151,1.49984 8.46644,2.26773 8.46644,0.89735 z m -66.44424,-5.03156 c -2.98691,-2.44569 -6.375,-5.55219 -7.52906,-6.90332 -1.22624,-1.43563 -6.12807,-3.48727 -11.79438,-4.93645 -10.61047,-2.71368 -15.48232,-5.26798 -15.48232,-8.1173 0,-1.0154 -0.88205,-1.84619 -1.96011,-1.84619 -1.66703,0 -1.59725,0.514 0.46667,3.4375 1.33474,1.89062 4.13964,6.84615 6.23312,11.01229 2.09347,4.16613 4.57239,8.21057 5.50871,8.98765 1.66977,1.3858 8.1271,2.12066 22.68237,2.58133 l 7.30578,0.23123 -5.43078,-4.44671 z M 312.5,392.42623 c 0,-0.72808 -0.5625,-0.97613 -1.25,-0.55123 -0.6875,0.4249 -1.25,-0.3202 -1.25,-1.65577 0,-2.29348 -5.60078,-8.1406 -12.51123,-13.06155 l -3.11377,-2.21734 4.375,0.7986 c 2.40625,0.43923 7.75,2.18504 11.875,3.87957 4.125,1.69454 8.34375,3.41271 9.375,3.81819 4.25374,1.67249 -2.77379,-4.43047 -7.61598,-6.614 -4.37708,-1.97379 -4.94033,-2.67817 -4.27173,-5.34209 0.76582,-3.05127 0.72941,-3.06443 -6.48358,-2.34218 -3.98954,0.39948 -10.90996,0.33488 -15.37871,-0.14355 l -8.125,-0.86988 4.78861,-2.97694 c 5.29406,-3.29117 6.44863,-3.27723 30.01141,0.36225 13.9938,2.16147 16.89954,1.60059 27.69998,-5.34667 l 6.25,-4.02025 0.39365,4.52386 c 0.22801,2.62023 -0.42949,5.78014 -1.5625,7.50933 -2.42468,3.70052 -2.50561,7.3113 -0.20666,9.21926 0.96222,0.79857 5.60285,2.41432 10.3125,3.59055 8.13778,2.03241 8.68555,2.40242 11.03066,7.45111 1.59606,3.4361 3.28146,5.3125 4.77174,5.3125 2.92628,0 1.9427,-3.82733 -2.5107,-9.7696 -1.70839,-2.27953 -2.90873,-4.33269 -2.66743,-4.56259 0.24131,-0.22989 4.09499,1.79986 8.56374,4.51055 8.47801,5.14266 13.28519,6.95311 14.7015,5.5368 1.62462,-1.62462 -1.91266,-5.13267 -8.57759,-8.50672 l -6.74891,-3.41655 4.96527,-0.021 c 4.93507,-0.0209 4.95028,-0.0359 2.5,-2.46614 -2.59538,-2.57421 -14.93401,-6.30475 -20.8529,-6.30475 -1.91804,0 -3.48737,-0.5625 -3.48737,-1.25 0,-0.6875 0.54805,-1.25 1.2179,-1.25 1.91976,0 5.39201,-7.48581 6.92521,-14.93006 l 1.40156,-6.80507 23.66517,-3.91342 c 34.18392,-5.65289 40.08438,-8.00184 47.63345,-18.96274 2.515,-3.65166 4.30208,-6.91001 3.97131,-7.24077 -0.86364,-0.86365 -21.29094,2.66323 -32.3146,5.57928 -12.51454,3.31043 -25,3.30012 -25,-0.0206 0,-0.56426 3.03559,-0.71264 6.74576,-0.32973 4.52465,0.46699 8.66025,0.0439 12.56033,-1.28498 3.19801,-1.08968 10.42803,-2.61785 16.06674,-3.39595 5.6387,-0.77809 12.9822,-1.78737 16.3189,-2.24282 l 6.06672,-0.8281 -4.91915,-7.31203 c -5.50087,-8.17675 -12.38201,-13.3798 -21.85731,-16.52699 -4.58115,-1.52161 -8.32751,-4.11935 -13.36439,-9.26689 -3.84935,-3.93392 -9.52866,-8.45401 -12.6207,-10.04463 -6.56221,-3.37577 -16.02977,-3.99419 -19.32439,-1.26229 -2.2465,1.86281 -2.21678,5.6411 0.14688,18.67475 0.69472,3.83084 0.53434,4.15914 -1.58575,3.24579 -18.95559,-8.16618 -23.80538,-8.23685 -60.48364,-0.8814 -31.35187,6.2873 -41.07641,9.33111 -53.29145,16.68043 C 234.82431,317.59656 212.5,346.67075 212.5,361.12904 l 0,3.53526 8.4375,-2.40084 c 8.33867,-2.3727 19.4625,-2.51937 26.32385,-0.34707 2.33042,0.73781 3.02609,0.37943 3.61189,-1.86064 0.69216,-2.64685 1.13432,-2.73424 9.61365,-1.9 4.88846,0.48095 9.06973,1.03991 9.29174,1.24214 0.22198,0.20222 -0.19141,2.52266 -0.91865,5.15652 -1.11456,4.03657 -0.98159,5.12638 0.84637,6.93743 2.0361,2.01725 14.68738,6.00816 19.04601,6.00816 1.08742,0 4.48486,2.57666 7.54988,5.72591 7.15168,7.34823 16.19776,12.48639 16.19776,9.20032 z m 87.5577,-85.4817 c -3.37586,-4.06767 2.2109,-8.96164 5.95554,-5.217 1.59193,1.59193 1.75496,2.56867 0.7066,4.23342 -1.8252,2.89834 -4.71853,3.32549 -6.66214,0.98358 z m 5.78867,-1.44568 c 1.06566,-2.77705 -2.26332,-4.61634 -4.43177,-2.4486 -0.94072,0.94041 -1.32941,2.32633 -0.86374,3.0798 1.25754,2.03474 4.41702,1.65815 5.29551,-0.6312 z m -17.20053,87.7343 c -0.28647,-0.28426 -4.25843,-2.49853 -8.82659,-4.92058 l -8.30574,-4.40373 1.93285,4.92059 c 1.92438,4.89897 1.96313,4.92057 8.82659,4.92057 3.79154,0 6.65934,-0.23258 6.37289,-0.51685 z m 5.65301,-3.54565 c -2.4322,-7.8661 -16.36139,-30.28674 -22.21399,-35.75596 -3.22036,-3.0094 -5.83486,-2.75058 -5.83486,0.57761 0,1.02389 -1.125,4.1901 -2.5,7.03603 -1.375,2.84591 -2.5,5.27681 -2.5,5.40197 0,0.12518 3.50844,0.91783 7.79654,1.76146 4.28809,0.84363 9.33391,2.32889 11.21293,3.30057 4.14039,2.14107 6.72878,6.28138 4.41804,7.06693 -0.94539,0.32139 0.0781,1.90604 2.61723,4.05218 3.09135,2.61292 4.02518,4.28052 3.61083,6.44806 -0.42963,2.24748 -0.001,2.92365 1.852,2.92365 1.92453,0 2.23545,-0.5674 1.54128,-2.8125 z m 13.43192,0.91147 c 11.58674,-2.40882 23.69008,-6.34316 31.41985,-10.2134 l 6.02562,-3.017 -3.05327,-5.24678 c -4.40033,-7.56161 -18.39637,-18.867 -31.44261,-25.39797 -10.78176,-5.39736 -11.61945,-5.61123 -18.79503,-4.79842 -7.7747,0.88068 -13.29284,2.81475 -17.37968,6.09148 -2.27619,1.82497 -2.11757,2.22582 4.0335,10.19365 3.52157,4.56168 9.36904,14.14041 12.99436,21.28606 3.62532,7.14565 6.69534,12.99463 6.82226,12.99775 0.12694,0.002 4.34569,-0.8498 9.375,-1.89537 z M 268.60968,382.1875 C 262.50259,370.03577 260.35402,367.5 256.16489,367.5 c -4.16884,0 -4.67696,1.94231 -1.89654,7.24958 2.61786,4.99696 14.23439,15.25042 17.27777,15.25042 0.54443,0 -0.77697,-3.51563 -2.93645,-7.8125 z m -54.29104,-2.5 c -1.67003,-2.92188 -3.39021,-7.9303 -3.82263,-11.12982 l -0.78621,-5.81734 -5.7924,-0.77863 c -3.18581,-0.42824 -7.93015,-1.09905 -10.54295,-1.49069 l -4.75055,-0.71207 0.85642,9.80803 c 0.47103,5.39441 1.06232,10.04281 1.31397,10.32977 0.34528,0.39375 16.14079,3.44621 25.69573,4.96569 0.47577,0.0756 -0.50136,-2.25306 -2.17138,-5.17494 z m 15.59051,-1.13541 c 3.04378,-1.43834 9.26766,-3.24785 13.83085,-4.02113 l 8.29673,-1.40596 -1.07698,-4.15078 c -2.08249,-8.02612 -15.4987,-9.91126 -32.4499,-4.5596 -6.94128,2.19143 -7.09729,2.34059 -6.38399,6.10335 0.75476,3.98144 3.47673,10.15513 5.71063,12.9523 1.02186,1.27953 1.79502,1.20949 3.90627,-0.35387 1.44773,-1.07204 5.1226,-3.12599 8.16639,-4.56431 z m 76.84015,2.19608 c -0.36973,-0.9635 -1.89895,-2.05934 -3.39826,-2.43522 -2.6631,-0.66762 -2.6579,-0.62717 0.22493,1.75183 3.50929,2.89595 4.06858,3.0164 3.17333,0.68339 z m -120.4993,-11.695 0,-9.69681 -21.45651,-4.10531 c -15.86559,-3.03557 -21.69199,-3.7243 -22.3602,-2.64311 -1.4525,2.3502 -2.66233,13.91916 -1.56308,14.94701 1.0898,1.01901 39.60738,10.9041 43.19229,11.08479 1.90481,0.096 2.1875,-1.14283 2.1875,-9.58656 z m 270.87991,-1.89089 C 469.71874,354.05231 473.9883,342.12472 474.01197,320 c 0.0199,-18.61525 -6.09612,-40.57316 -17.77213,-63.80574 -11.07439,-22.0355 -45.36786,-60.08531 -67.48984,-74.88235 -6.94291,-4.644 -34.76162,-19.27272 -66.97914,-35.2216 -60.12932,-29.76626 -63.55044,-31.04897 -89.89586,-33.70557 -7.5625,-0.76258 -17.54688,-1.01455 -22.1875,-0.55994 -6.92825,0.67873 -8.4375,0.50136 -8.4375,-0.99157 0,-0.99998 3.37236,-8.76841 7.49415,-17.263186 C 212.86592,85.07527 216.23883,76.71875 216.23947,75 216.24447,62.722681 197.8326,55.158991 177.85496,59.231143 167.02255,61.43917 149.30817,69.481219 137.2705,77.655854 c -7.68831,5.221032 -8.01777,5.314919 -22.22475,6.333474 -16.871845,1.209609 -25.318521,3.376186 -35.763947,9.173468 -8.625208,4.787048 -27.207297,20.354034 -27.767282,23.261804 -0.267465,1.38883 2.696527,3.08349 10.619732,6.07182 26.175579,9.87244 42.465127,17.00628 52.014047,22.77904 C 133.46473,156.95312 141.9611,160 155.20851,160 c 4.43024,0 4.95779,-0.41128 7.85088,-6.12051 9.67882,-19.10025 38.76958,-15.17865 42.69691,5.75577 1.72199,9.179 -4.44719,20.00333 -13.82959,24.26516 -6.40249,2.90824 -11.21327,2.90257 -17.64996,-0.0209 -6.11414,-2.7769 -9.83783,-7.22935 -12.63671,-15.1098 l -2.0791,-5.85381 -5.09297,0.94083 c -10.70658,1.97787 -23.31045,-2.38627 -48.45588,-16.77804 -14.939468,-8.55048 -52.002075,-25.78073 -55.528946,-25.81517 -1.917494,-0.0187 0.150397,11.09535 3.720622,19.99686 4.826596,12.03395 11.64277,20.89109 21.292085,27.66754 11.703266,8.21888 40.984359,22.83655 76.001609,37.94144 15.60485,6.73124 28.6888,13.06296 29.07543,14.0705 0.38662,1.00754 0.0644,5.49904 -0.71618,9.98114 -2.43099,13.95976 0.2535,28.19623 7.05241,37.40051 1.9892,2.69296 1.98463,2.69486 -3.39612,1.40915 -2.9634,-0.70809 -13.8255,-1.35905 -24.138,-1.44659 -16.4686,-0.13979 -19.35009,0.14504 -23.68193,2.34085 -8.79258,4.45698 -7.10535,6.487 6.44315,7.75218 4.28562,0.4002 7.54274,1.13101 7.23804,1.62401 -0.30469,0.49301 -4.15071,1.26487 -8.54671,1.71525 -4.39601,0.45039 -10.8885,1.67884 -14.42776,2.72987 -6.68361,1.98487 -15.14979,8.29092 -15.14979,11.28441 0,4.74217 15.30586,2.89446 38.48181,-4.64549 8.5156,-2.77043 15.72604,-4.794 16.02319,-4.49685 0.29716,0.29715 -1.69308,2.088 -4.42275,3.97966 -2.72966,1.89166 -7.8392,6.48051 -11.35453,10.19745 -5.01303,5.30055 -6.30645,7.49691 -5.99711,10.18381 0.30629,2.66048 1.14128,3.51207 3.73783,3.81219 2.77866,0.32117 4.17576,-0.73457 8.27077,-6.25 8.75928,-11.79756 8.34433,-11.61614 26.9625,-11.78846 22.75163,-0.2106 21.83158,-0.064 25.89444,-4.12684 4.1151,-4.11509 4.78864,-9.83107 1.77885,-15.09615 -0.98253,-1.71875 -1.79399,-5.375 -1.80325,-8.125 -0.0179,-5.28579 3.9665,-15.625 6.02122,-15.625 2.29852,0 8.69764,-6.30079 13.03282,-12.83252 5.1636,-7.77994 8.34436,-17.73482 8.45345,-26.45685 0.0611,-4.89108 0.32796,-5.71874 1.17016,-3.63004 1.6761,4.15682 -0.69321,17.38225 -4.51251,25.18861 -1.87601,3.83444 -6.30284,9.95744 -9.83739,13.60665 l -6.42645,6.63495 10.40972,11.15579 c 5.72535,6.13569 12.27431,12.30815 14.55322,13.7166 6.18788,3.82432 17.99527,6.43101 33.67877,7.43516 12.97906,0.83101 14.15661,0.71773 15.99901,-1.53912 1.59069,-1.94853 3.51314,-2.4218 9.60432,-2.36443 5.41191,0.051 7.80911,-0.4327 8.2845,-1.67154 0.36792,-0.95878 1.74963,-1.74326 3.07048,-1.74326 2.21634,0 2.07973,-0.74707 -1.77141,-9.6875 -10.53022,-24.44586 -6.9954,-40.86311 9.89264,-45.94566 3.15899,-0.95071 6.00544,-1.30491 6.32546,-0.78711 0.32001,0.5178 -1.98985,1.62927 -5.13305,2.46994 -7.37141,1.97155 -13.63951,8.15618 -14.86217,14.66424 -1.30049,6.92231 0.99015,18.58263 5.90147,30.041 4.08469,9.5298 4.3413,9.82519 9.26549,10.66581 2.78545,0.47552 7.00374,0.3714 9.37397,-0.23136 l 4.30953,-1.09595 -5.27993,0.29573 c -3.10891,0.17412 -4.81968,-0.16453 -4.16063,-0.82358 0.61561,-0.61561 4.80277,-0.88475 9.3048,-0.59808 7.49672,0.47736 8.03066,0.35012 6.3454,-1.51208 -2.01173,-2.22294 -1.28134,-3.71227 1.8112,-3.69319 2.70083,0.0166 15.63663,6.12198 14.78196,6.97665 -0.37705,0.37705 -2.84943,-0.40652 -5.49416,-1.74127 -6.54636,-3.3038 -10.43364,-4.40943 -10.43364,-2.96755 0,1.66285 9.32516,5.23317 14.9035,5.70612 2.53877,0.21524 6.14789,1.3951 8.02024,2.62191 1.87236,1.22682 3.6369,1.99797 3.9212,1.71366 0.2843,-0.28431 -0.001,-2.75113 -0.63419,-5.48182 -2.9257,-12.61902 -0.18069,-17.47745 9.85799,-17.44771 7.87506,0.0234 15.83657,4.29617 24.7065,13.25963 5.76013,5.82086 8.86175,7.8555 15.18055,9.95824 9.31922,3.10125 19.5125,12.21544 23.34353,20.87234 2.19038,4.94957 2.22298,5.66755 0.42825,9.43113 l -1.94261,4.07371 10.3666,5.30826 c 11.44234,5.8591 21.23136,12.48824 20.10469,13.61492 -0.39946,0.39945 -4.58231,-1.83779 -9.29521,-4.97167 -4.71292,-3.13387 -11.53799,-7.20249 -15.16685,-9.04137 l -6.59793,-3.34341 -3.91062,3.78033 c -5.0017,4.83504 -15.50579,9.56965 -25.4963,11.49219 l -7.83565,1.50788 9.71065,4.77278 c 12.04465,5.91995 22.57532,14.17001 29.45085,23.07272 2.8929,3.74582 5.87377,6.81273 6.62417,6.81536 0.7504,0.002 4.75115,-3.52222 8.89055,-7.83296 z M 131.46452,185.625 c 0.0693,-3.4375 0.37079,-4.97604 0.67008,-3.41896 0.29927,1.55707 1.06643,2.50825 1.70476,2.11372 1.65484,-1.02274 1.36095,0.79986 -0.71436,4.43024 -1.72051,3.00971 -1.78176,2.89442 -1.66047,-3.125 z m 15.64434,-5.3809 c -4.17875,-4.36168 -4.4573,-6.71181 -0.3367,-2.8407 l 3.02218,2.83918 0.5576,-2.93379 c 0.37308,-1.96293 0.61393,-1.38259 0.72783,1.75371 0.0936,2.57813 -0.006,4.6875 -0.22091,4.6875 -0.21512,0 -1.90262,-1.57765 -3.75,-3.5059 z M 96.25,170.07377 c 0,-1.33442 0.5625,-2.77387 1.25,-3.19877 0.6875,-0.4249 1.25,-0.14365 1.25,0.625 0,0.76865 0.5625,1.0499 1.25,0.625 1.75023,-1.0817 1.5639,1.0611 -0.25,2.875 -2.186726,2.18673 -3.5,1.83919 -3.5,-0.92623 z m 14.69406,-3.19877 c -0.32856,-1.71875 -0.11288,-3.125 0.47928,-3.125 0.59216,0 1.07666,0.8261 1.07666,1.83577 0,1.22733 0.72502,1.56405 2.1875,1.01595 1.91561,-0.71791 1.97427,-0.55766 0.47194,1.28924 -2.37295,2.91723 -3.51617,2.64169 -4.21538,-1.01596 z m 14.53824,-27.16798 c -8.11261,-7.12296 -10.10178,-16.79207 -5.52753,-26.8687 2.58563,-5.69586 8.0879,-9.84302 14.72303,-11.09698 6.06399,-1.14602 15.19919,3.79406 18.73914,10.13366 3.80521,6.81466 3.7814,15.91227 -0.0583,22.25502 -4.13994,6.83879 -8.95585,9.60189 -16.75268,9.61174 -5.57206,0.007 -7.18789,-0.57905 -11.1237,-4.03474 z m 19.50605,0.4738 c 5.00901,-2.68636 10.02497,-11.19682 9.9842,-16.93993 -0.0426,-6.00522 -4.34364,-14.14443 -8.96238,-16.96039 -13.85948,-8.449915 -30.29314,5.19007 -25.94207,21.532 3.25402,12.22156 14.64879,17.87697 24.92025,12.36832 z m -19.19477,-11.52155 c -7.92127,-6.23087 0.35326,-17.14734 9.34843,-12.33327 3.52828,1.88828 5.20167,6.93545 3.42104,10.31834 -2.82355,5.3643 -7.5611,6.11185 -12.76947,2.01493 z m 10.14392,-1.50637 c 2.15006,-1.66365 1.95856,-5.32827 -0.40179,-7.68861 -2.56516,-2.56517 -8.79082,-2.55692 -9.77697,0.0129 -2.87687,7.49698 3.85198,12.57111 10.17876,7.67566 z m 161.875,240.76925 c -0.85938,-0.34676 -2.26563,-0.34676 -3.125,0 -0.85938,0.34676 -0.15625,0.63049 1.5625,0.63049 1.71875,0 2.42187,-0.28373 1.5625,-0.63049 z M 138.02246,363.4375 c 0.31356,-1.54688 0.88983,-5.18062 1.2806,-8.075 0.7049,-5.22112 0.67359,-5.27211 -3.98379,-6.48681 -13.61684,-3.55144 -20.19201,-5.12569 -21.40838,-5.12569 -1.74511,0 -4.7569,4.67038 -5.83203,9.04371 -0.94539,3.8456 -1.45816,3.53534 16.29614,9.86033 12.09779,4.30986 12.92306,4.35723 13.64746,0.78346 z m 129.91421,-0.27246 c 0.93065,-2.42525 0.21288,-2.75669 -8.24917,-3.80915 -6.68508,-0.83147 -7.1875,-0.7164 -7.1875,1.64591 0,3.1195 1.49665,3.77315 8.92876,3.89951 4.0186,0.0684 6.02035,-0.46572 6.50791,-1.73627 z m 26.12583,0.9528 c -1.54688,-0.29795 -4.07813,-0.29795 -5.625,0 -1.54688,0.29794 -0.28125,0.54171 2.8125,0.54171 3.09375,0 4.35937,-0.24377 2.8125,-0.54171 z M 107.19221,349.5845 c 1.77953,-4.46949 1.74904,-4.94356 -0.45494,-7.07462 -1.94501,-1.88067 -13.573905,-7.18621 -27.534964,-12.56247 -2.205485,-0.84931 -3.233098,-0.2416 -5.878532,3.47645 -1.763213,2.47813 -2.871348,5.04692 -2.462523,5.7084 1.113293,1.80135 30.748079,15.87158 32.718679,15.53444 0.93771,-0.16044 2.56324,-2.44743 3.61228,-5.0822 z m 264.75638,-2.74625 c 2.34972,-1.85133 2.33075,-1.90071 -0.60068,-1.5625 -1.6649,0.19209 -3.25865,1.05237 -3.54167,1.91175 -0.70023,2.12625 1.20421,1.96569 4.14235,-0.34925 z M 70.9375,333.12706 c 3.584784,-5.53427 3.537148,-6.14679 -0.625,-8.03637 -1.890625,-0.85834 -7.518296,-4.33849 -12.505935,-7.73368 l -9.068435,-6.17307 -3.643235,2.69355 c -2.003779,1.48146 -3.372576,3.39889 -3.041774,4.26095 0.92516,2.41092 23.168977,19.39212 25.341608,19.34608 0.401649,-0.009 1.995896,-1.96937 3.542771,-4.35746 z m -27.272036,-20.76221 3.564234,-2.63515 -7.103855,-7.10386 c -3.907122,-3.90712 -9.849013,-11.43734 -13.204205,-16.73383 -3.355193,-5.29647 -6.238707,-9.49161 -6.40781,-9.32251 -0.998104,0.99811 2.557395,13.88731 5.593646,20.2778 C 30.176334,305.41113 36.88542,315 38.808456,315 c 0.711027,0 2.89668,-1.18581 4.857008,-2.63515 z M 55,311.76681 c 0,-1.21516 -15.349465,-16.82949 -19.358112,-19.69215 l -3.733113,-2.66588 2.813638,3.95138 C 37.218886,296.86614 53.419241,312.5 54.55578,312.5 54.800101,312.5 55,312.17006 55,311.76681 Z m 96.51466,-15.99991 c 5.19876,-4.09691 4.42588,-4.06354 -11.36357,0.49085 -7.13565,2.05824 -14.44815,3.75896 -16.25,3.77939 -2.55806,0.029 -1.0977,1.24427 6.66298,5.54479 l 9.93908,5.50763 3.45059,-6.04173 c 1.89782,-3.32297 5.30023,-7.49938 7.56092,-9.28093 z M 255,303.68114 l 3.125,-2.51327 -5,0.83024 c -5.77219,0.95845 -6.875,1.45183 -6.875,3.07566 0,2.07943 5.52652,1.19984 8.75,-1.39263 z m -8.87503,-0.4055 c 0.78711,-0.94839 3.09459,-2.05705 5.12777,-2.46369 2.49027,-0.49805 3.4775,-1.31047 3.02507,-2.48946 -1.3707,-3.57198 3.18643,-6.0578 10.29264,-5.61444 11.10865,0.69308 7.70127,-2.07389 -4.44129,-3.60656 -6.11647,-0.77204 -13.0071,-2.37277 -15.3125,-3.55718 -2.30541,-1.1844 -10.0314,-8.03281 -17.16885,-15.21869 -13.9307,-14.02523 -13.95057,-14.03108 -16.48995,-4.85108 -1.13146,4.0903 -0.9143,5.99181 1.38714,12.1458 2.18676,5.84734 2.4729,8.02986 1.44089,10.9903 l -1.28775,3.69402 15.21343,6.30812 c 8.36739,3.46945 15.56643,6.3259 15.99788,6.34766 0.43144,0.0217 1.42843,-0.7364 2.21553,-1.6848 z m 20.65408,-5.35663 c 5.64189,-2.69042 4.59572,-4.16901 -2.94976,-4.16901 -6.65097,0 -10.93648,2.90093 -7.49892,5.07612 2.64967,1.67664 5.56042,1.42394 10.44868,-0.90711 z M 280.625,292.5 c 1.92905,-0.82894 1.26987,-1.09435 -2.88628,-1.16214 -3.2919,-0.0537 -5.08587,0.39818 -4.61372,1.16214 0.91872,1.48654 4.04065,1.48654 7.5,0 z m 26.85043,-5.07766 c 2.28699,-0.69524 1.03796,-0.98688 -4.56069,-1.0649 -8.40482,-0.11713 -12.05689,0.74677 -10.92173,2.58351 0.72911,1.17972 9.40572,0.32866 15.48242,-1.51861 z M 320,284.88911 c 1.03125,-0.0797 -0.0937,-0.63074 -2.5,-1.2244 -5.3374,-1.31682 -9.09618,-0.45875 -6.21496,1.41879 1.01197,0.65945 2.96496,0.91812 4.33996,0.57482 1.375,-0.3433 3.34375,-0.68944 4.375,-0.76921 z M 434.7927,219.6875 c -7.28043,-10.59785 -31.95479,-34.96775 -44.18576,-43.64053 -5.49007,-3.89291 -14.48194,-9.46687 -19.98194,-12.38657 -5.5,-2.9197 -10.84375,-5.94631 -11.875,-6.7258 -1.03125,-0.77948 -4.00324,-2.13937 -6.60441,-3.02199 -2.60118,-0.88261 -22.85118,-10.47395 -45,-21.31409 -24.81974,-12.14733 -43.48651,-20.50339 -48.65249,-21.77893 -6.12352,-1.51197 -13.36456,-2.02149 -26.875,-1.89108 l -18.4931,0.17851 13.78291,0.99652 c 13.05364,0.94379 24.67919,2.8712 36.47167,6.04667 2.89001,0.77823 31.01501,14.26665 62.5,29.97429 60.72446,30.295 68.55526,35.03416 87.28196,52.8227 5.22265,4.961 13.20448,13.41489 17.73742,18.7864 4.53294,5.37153 8.47098,9.7664 8.75121,9.7664 0.28023,0 -1.90563,-3.51563 -4.85747,-7.8125 z m 1.2416,-13.843 c 0.23916,-1.25429 -0.48796,-3.30019 -1.61583,-4.54646 -2.46576,-2.72464 -16.42461,-9.17099 -18.41911,-8.50617 -0.77744,0.25915 2.03671,3.99722 6.25366,8.30682 5.70233,5.82762 8.39488,7.73195 10.5068,7.43097 1.5618,-0.22256 3.03532,-1.43088 3.27448,-2.68516 z m -13.76607,-21.1331 c 0.83317,-7.23292 -7.14484,-11.39331 -24.14323,-12.59024 l -8.75,-0.61612 5.625,5.0524 c 11.53524,10.36101 15.04934,12.33936 21.20454,11.93765 5.13845,-0.33537 5.70735,-0.69036 6.06369,-3.78369 z m -228.50552,-3.7739 c 6.17841,-4.20499 9.01938,-8.80399 9.67896,-15.66845 1.2117,-12.61041 -6.98402,-21.51905 -19.79698,-21.51905 -8.1511,0 -13.94146,3.16264 -17.75953,9.70006 -3.28153,5.61876 -3.08915,15.33628 0.4159,21.00756 5.48037,8.86742 19.19781,12.10419 27.46165,6.47988 z m -12.18331,-3.71979 c -2.18888,-2.73034 -6.78344,-12.43034 -6.1757,-13.03808 0.31796,-0.31795 2.3238,2.64496 4.45741,6.58426 3.67296,6.78138 4.51431,9.94149 1.71829,6.45382 z m 4.11133,-2.36756 C 180.8458,169.09227 175.21377,157.5 177.26129,157.5 c 0.52217,0 2.56278,3.39719 4.5347,7.5493 1.97191,4.15211 5.23016,8.93336 7.24056,10.625 2.27973,1.91826 2.95539,3.0757 1.79548,3.0757 -1.02289,0 -3.33648,-1.75494 -5.1413,-3.89985 z m 204.17778,-6.56671 c 0.78354,-0.94411 1.07523,-2.62706 0.6482,-3.73989 -0.8862,-2.30939 -13.51267,-6.53616 -23.31567,-7.80504 l -6.57604,-0.85118 13.125,6.9935 c 7.21875,3.84642 13.478,7.02177 13.90945,7.05633 0.43144,0.0346 1.42551,-0.70961 2.20906,-1.65372 z M 120.09168,151.21126 c -7.80563,-5.04502 -29.193327,-16.22069 -31.004202,-16.20056 -0.529363,0.006 6.269902,3.95386 15.109472,8.7733 8.83958,4.81943 17.26161,9.59586 18.71564,10.6143 1.45402,1.01844 3.16822,1.8517 3.80934,1.8517 0.64111,0 -2.3425,-2.26744 -6.63025,-5.03874 z M 355.625,148.7159 c 0,-5.09805 -12.00748,-9.98839 -28.90356,-11.77166 l -7.34644,-0.77538 7.5,4.01386 c 10.71908,5.73665 26.03271,12.35463 27.5,11.88448 0.6875,-0.2203 1.25,-1.72838 1.25,-3.3513 z m -33.1251,-16.84078 c 1.30824,-1.57633 0.88478,-2.1471 -2.65945,-3.58448 -4.06426,-1.64829 -21.09045,-3.77845 -21.09045,-2.63865 0,0.30686 3.23437,2.2274 7.1875,4.26785 7.93091,4.09364 14.17586,4.83089 16.5624,1.95528 z M 293.75,120.56122 c 0,-2.3918 -6.08606,-5.02835 -14.375,-6.22743 -7.78491,-1.12616 -7.17986,-0.43856 3.7912,4.30843 10.16975,4.40028 10.5838,4.47535 10.5838,1.919 z m -32.08993,-17.17863 c 7.85845,-5.153225 -1.18571,-6.050265 -20.76728,-2.05979 -19.19043,3.91076 -19.08862,5.05181 0.41495,4.65056 13.77465,-0.28339 17.57052,-0.76659 20.35233,-2.59077 z m 8.10555,305.76352 c 0.90234,-0.36108 1.98047,-0.31668 2.39584,0.0986 0.41536,0.41536 -0.32292,0.7108 -1.64062,0.65652 -1.45619,-0.06 -1.75238,-0.35617 -0.75522,-0.7552 z m -169.978844,-46.026 c -0.346439,-0.34644 -9.935872,-1.16241 -21.309851,-1.81326 -20.688183,-1.18385 -32.358508,-3.12914 -42.059808,-7.01083 -9.353855,-3.74267 -5.386613,-3.89522 5.613762,-0.21587 8.910761,2.98044 14.151652,3.80785 30.21276,4.76986 19.063398,1.14185 33.682341,2.9093 35.005231,4.23219 0.36729,0.36729 -1.0197,0.6678 -3.0822,0.6678 -2.0625,0 -4.03345,-0.28345 -4.379894,-0.62989 z"
       id="path3794"
       inkscape:connector-curvature="0" />
  </g>
</svg>
