<?xml version="1.0" encoding="UTF-8" standalone="no"?>
<!-- Created with Inkscape (http://www.inkscape.org/) -->

<svg
   xmlns:dc="http://purl.org/dc/elements/1.1/"
   xmlns:cc="http://creativecommons.org/ns#"
   xmlns:rdf="http://www.w3.org/1999/02/22-rdf-syntax-ns#"
   xmlns:svg="http://www.w3.org/2000/svg"
   xmlns="http://www.w3.org/2000/svg"
   xmlns:sodipodi="http://sodipodi.sourceforge.net/DTD/sodipodi-0.dtd"
   xmlns:inkscape="http://www.inkscape.org/namespaces/inkscape"
   id="svg3406"
   version="1.1"
   inkscape:version="0.91 r13725"
   width="500"
   height="500"
   viewBox="0 0 500 500"
   sodipodi:docname="Dolphin.svg">
  <metadata
     id="metadata3412">
    <rdf:RDF>
      <cc:Work
         rdf:about="">
        <dc:format>image/svg+xml</dc:format>
        <dc:type
           rdf:resource="http://purl.org/dc/dcmitype/StillImage" />
        <dc:title></dc:title>
      </cc:Work>
    </rdf:RDF>
  </metadata>
  <defs
     id="defs3410" />
  <sodipodi:namedview
     pagecolor="#ffffff"
     bordercolor="#666666"
     borderopacity="1"
     objecttolerance="10"
     gridtolerance="10"
     guidetolerance="10"
     inkscape:pageopacity="0"
     inkscape:pageshadow="2"
     inkscape:window-width="2560"
     inkscape:window-height="1392"
     id="namedview3408"
     showgrid="false"
     inkscape:zoom="2.452"
     inkscape:cx="250"
     inkscape:cy="250"
     inkscape:window-x="0"
     inkscape:window-y="0"
     inkscape:window-maximized="1"
     inkscape:current-layer="svg3406" />
  <g
     id="g3416">
    <path
       style="fill:#2c2c2c"
       d="m 188.81194,427.8125 c 0.034,-0.51563 5.05375,-3.28511 11.15487,-6.15443 6.10111,-2.86931 11.65818,-6.27308 12.34903,-7.56394 0.93382,-1.74488 0.59376,-3.77377 -1.32546,-7.90808 -1.76099,-3.79345 -2.62665,-8.34226 -2.72347,-14.31105 l -0.14191,-8.75 4.00474,-0.38739 c 2.20261,-0.21306 5.20896,0.25709 6.68079,1.04478 2.45272,1.31266 2.60079,1.18851 1.7744,-1.4876 -2.5968,-8.40923 -8.54237,-15.38645 -16.43437,-19.28607 -5.81816,-2.87488 -18.42747,-3.14995 -26.8253,-0.58518 -5.13746,1.56902 -7.05412,1.52481 -16.78516,-0.38718 -6.04199,-1.18713 -13.72221,-3.33577 -17.06715,-4.77472 -7.15436,-3.07773 -14.35919,-10.92645 -15.47118,-16.85385 -1.11588,-5.94824 -2.65719,-6.22581 -4.17721,-0.75229 -1.79668,6.4698 -1.76014,6.83441 1.98445,19.7988 l 3.30902,11.45635 -2.37152,4.85718 c -3.86909,7.92442 -8.37406,9.3485 -33.39427,10.55632 -11.812481,0.57024 -29.552945,1.91184 -39.423251,2.98133 -19.987003,2.16567 -23.488119,2.33698 -22.239323,1.08818 1.238669,-1.23866 42.193595,-5.20948 62.685334,-6.07772 30.91298,-1.30977 35.73306,-5.53551 29.39113,-25.76708 -1.36613,-4.35812 -2.49113,-10.3369 -2.5,-13.28616 -0.0162,-5.39711 3.27557,-13.53882 6.5841,-16.28466 1.51088,-1.25393 1.70758,-0.57358 1.28905,4.45862 -0.61635,7.41066 3.02763,14.27954 10.24633,19.3142 9.28473,6.47562 34.09179,10.73993 40.99278,7.04663 3.69754,-1.97885 15.42147,-1.91458 21.39144,0.11725 6.57643,2.23827 15.24196,10.45488 19.14113,18.14952 1.75296,3.45933 4.09325,6.95845 5.20063,7.77585 2.31828,1.71121 16.35011,5.8648 17.14099,5.07393 1.06628,-1.06628 -6.05577,-23.06769 -10.62025,-32.80805 C 221.82524,335.04426 207.83041,317.89762 184.9778,299.71906 164.74626,283.62555 151.25,270.04709 151.25,265.7859 c 0,-10.98344 21.7167,-6.71899 37.24191,7.31309 8.31424,7.51461 15.08904,17.0466 26.22716,36.90101 4.821,8.59375 12.19099,21.21335 16.37774,28.04355 10.17384,16.59746 14.80122,28.16215 17.25858,43.13246 l 2.04406,12.45249 6.1118,1.31075 C 263.3315,396.40194 270,396.66229 270,395.46589 c 0,-0.43125 -1.7114,-4.26045 -3.80312,-8.50934 -4.58205,-9.30748 -4.067,-12.59307 1.79045,-11.42159 5.51126,1.10225 12.13131,6.8944 15.61342,13.66083 1.64283,3.19231 3.77246,5.80421 4.73254,5.80421 3.63477,0 17.22308,-5.27965 18.74491,-7.28321 4.77508,-6.28668 10.34501,-30.59579 10.39704,-45.37624 0.0261,-7.43055 2.0528,-10.7688 5.69028,-9.37296 2.96537,1.13791 5.58594,8.68887 5.57183,16.05476 -0.0125,6.4254 4.54084,22.22765 6.40453,22.22765 1.81226,0 4.85812,-3.96324 4.85812,-6.32134 0,-1.31601 -1.96875,-6.1038 -4.375,-10.63952 -5.04139,-9.5029 -5.1875,-10.50878 -2.08334,-14.34227 l 2.29168,-2.83008 0,4.01027 c 0,3.22099 1.4913,5.53438 7.57717,11.7541 4.16745,4.25911 8.53675,9.65388 9.70957,11.98836 1.65806,3.3004 2.39377,3.85649 3.30753,2.5 0.64634,-0.95948 7.29713,-14.26133 14.77954,-29.55967 14.41393,-29.4703 21.7689,-41.68314 29.79243,-49.46984 16.03034,-15.55722 30.68046,3.95746 19.40626,25.85011 -4.02614,7.8181 -8.69191,12.55744 -24.25261,24.63499 -16.51688,12.81969 -25.47798,21.83071 -33.85325,34.04181 -6.04123,8.80808 -9.61568,19.42804 -7.08829,21.05983 3.32215,2.14492 11.19368,3.66557 18.22437,3.52064 3.95392,-0.0815 9.25821,0.2351 11.78731,0.70356 7.05163,1.30616 13.14698,-1.25674 15.92254,-6.69494 3.79591,-7.4374 6.4663,-9.05697 17.11261,-10.37872 11.73888,-1.45739 16.01628,-3.78992 19.26803,-10.50714 2.78655,-5.75624 3.05442,-8.87934 1.18364,-13.79987 -1.15372,-3.03448 -1.07905,-3.21757 0.70741,-1.73492 6.3486,5.26886 7.66599,19.23857 2.48416,26.34229 -6.87211,9.42091 -7.1518,12.8845 -1.16185,14.38789 2.36903,0.59458 5.31465,-0.125 10.08123,-2.46275 7.91598,-3.88236 14.17997,-4.25464 17.11012,-1.01686 3.28429,3.6291 2.39851,5.43021 -0.99945,2.03226 -3.83295,-3.83296 -5.96482,-3.82845 -13.80681,0.0291 -7.6944,3.78502 -13.51744,4.01023 -16.875,0.65267 -3.38893,-3.38893 -3.1532,-5.41905 1.20567,-10.38354 5.89482,-6.7138 8.15319,-16.05581 5.04433,-20.86644 -0.97161,-1.50346 -1.21551,-1.2932 -1.23086,1.06109 -0.032,4.89975 -3.791,11.24852 -8.31602,14.04513 -2.59931,1.60647 -8.0697,3.11604 -13.92713,3.84324 -10.43874,1.29598 -13.85394,3.34963 -16.60155,9.98296 -1.8822,4.54403 -6.98242,7.31758 -13.45611,7.31758 -4.41128,0 -4.97878,0.36476 -5.62952,3.61842 -0.4782,2.39101 -3.53875,6.10118 -9.02241,10.9375 -4.5643,4.02549 -9.06769,8.72533 -10.00751,10.44408 -1.49727,2.73815 -1.71499,2.81843 -1.75884,0.6484 -0.0303,-1.49913 3.61875,-5.9393 9.24554,-11.25 11.21341,-10.58349 12.32049,-13.64694 5.07941,-14.05554 -4.6542,-0.26262 -5.32421,0.14638 -9.68787,5.91379 -7.38419,9.7596 -15.77425,9.88251 -18.3629,0.269 -2.71623,-10.08729 4.66835,-26.95401 19.54892,-44.65065 6.95579,-8.27213 10.93523,-11.82348 34.56685,-30.84834 12.81861,-10.31974 18.36156,-19.00535 19.15215,-30.01076 0.46315,-6.44718 0.0983,-8.63418 -1.99427,-11.9534 -2.15539,-3.4189 -3.3121,-4.0625 -7.30138,-4.0625 -4.62012,0 -9.24967,2.28336 -12.55565,6.19264 -6.56519,7.76323 -17.36032,26.65097 -29.11336,50.93822 -18.70812,38.6597 -30.91425,56.61914 -38.48118,56.61914 -2.42001,0 -2.87321,-5.43467 -1.27429,-15.28053 1.51863,-9.35132 1.45078,-10.51718 -1.0289,-17.67803 -1.46011,-4.21654 -3.00586,-11.60394 -3.435,-16.41644 -1.0548,-11.82886 -3.7868,-18.41881 -6.08901,-14.6875 -0.31814,0.51562 -1.20134,7.17142 -1.96265,14.79066 -2.44419,24.46124 -8.0305,39.53265 -18.79094,50.69642 -8.82542,9.15622 -14.04435,8.32623 -15.41475,-2.45147 -1.17902,-9.27258 -10.62066,-20.20382 -17.46327,-20.21843 -3.19844,-0.006 -2.69192,3.18437 1.73295,10.91825 5.16734,9.03155 5.33806,15.81852 0.50255,19.97786 -3.71658,3.19686 -6.49658,3.00986 -11.923,-0.80204 -5.17575,-3.6358 -8.45931,-11.18155 -10.56404,-24.27651 -2.5953,-16.14724 -7.0872,-27.34943 -18.47091,-46.06402 -5.14653,-8.46075 -12.31861,-20.72695 -15.93798,-27.2582 -14.49403,-26.15493 -24.42057,-37.71155 -38.17059,-44.43881 -9.06799,-4.43655 -17.88663,-5.51247 -20.12229,-2.455 -1.34001,1.83256 -1.32734,2.80236 0.0717,5.49697 2.39125,4.60535 16.45589,17.67011 32.37347,30.072 20.88473,16.27195 34.31533,32.33056 45.39347,54.27579 C 238.72774,366.1338 245,384.65002 245,391.11272 c 0,9.00394 -5.3862,10.04365 -14.52421,2.80367 C 223.77852,388.6102 214.92132,383.75 211.94861,383.75 c -4.13817,0 -3.42712,13.5978 1.17659,22.50039 4.02915,7.79151 1.77956,10.76293 -13.56744,17.92082 -10.64242,4.96365 -10.83756,5.02978 -10.74582,3.64129 z m 175.84285,-21.16973 c 6.02461,-6.46942 5.81667,-7.01812 -3.2245,-8.50923 -2.99459,-0.49388 -6.4582,-1.91145 -7.69693,-3.15018 -2.16963,-2.16964 -2.27876,-2.15332 -2.97572,0.4447 -2.28574,8.52036 1.02057,16.99246 6.655,17.0528 0.9832,0.01 4.24217,-2.61661 7.24215,-5.83809 z m -95.35067,-0.67091 c 3.55716,-5.07854 2.55118,-6.81949 -4.47938,-7.75212 -3.5339,-0.46879 -8.09056,-1.1854 -10.12593,-1.59248 l -3.70066,-0.74014 1.97595,3.82108 c 4.30768,8.33012 12.64319,11.52736 16.33002,6.26366 z m 29.77063,-7.2525 c 2.76685,-2.76685 4.76709,-5.2942 4.44496,-5.61632 -0.4455,-0.44549 -15.54979,3.97011 -16.90764,4.9428 -0.14459,0.10362 0.0616,1.4294 0.45829,2.94625 1.17084,4.47727 6.20807,3.5236 12.00439,-2.27273 z m -56.88923,-3.39917 c 0.52227,-1.56857 -3.20103,-3.44993 -9.42814,-4.76399 -3.33844,-0.70448 -3.32565,-0.66359 0.98488,3.14799 4.40173,3.8922 7.48867,4.48302 8.44326,1.616 z m 97.43027,-2.50769 c 1.78552,-1.89063 5.73425,-7.25114 8.77496,-11.91224 5.2334,-8.02228 5.45129,-8.70883 4.08144,-12.85955 -1.44777,-4.38676 -18.72219,-24.29366 -18.72219,-21.57528 0,0.79238 1.619,4.02119 3.59779,7.17513 5.53627,8.82414 5.81467,11.76465 1.5733,16.61702 -3.67954,4.20958 -6.42109,13.46563 -6.42109,21.67894 0,5.38622 2.55879,5.70122 7.11579,0.87598 z m -44.01209,-11.25 c -1.08136,-3.95313 -5.06301,-13.375 -8.84809,-20.9375 -4.57785,-9.14644 -7.12622,-15.92914 -7.61152,-20.2587 l -0.72958,-6.5087 -7.01975,-1.4305 c -8.66172,-1.76509 -12.76042,-4.22229 -20.76976,-12.45159 -6.76139,-6.94708 -10.71963,-9.4378 -18.64514,-11.73245 -6.23679,-1.80572 -6.48401,-4.08907 -0.85356,-7.88342 6.1022,-4.11228 13.23539,-5.87789 23.2487,-5.75454 10.09316,0.12437 18.32439,2.64134 28.28851,8.65028 3.87119,2.33453 7.874,4.24462 8.89514,4.24462 2.68596,0 9.18556,-15.37941 11.6595,-27.58879 4.81357,-23.75595 -2.73043,-47.1501 -21.06235,-65.31494 L 275.625,208.125 275,218.62035 c -0.70399,11.82165 -2.44361,14.42766 -7.73113,11.58147 -6.60176,-3.55363 -18.93688,-24.57643 -22.33237,-38.06116 -0.81581,-3.23986 -1.97146,-5.89066 -2.56811,-5.89066 -2.1024,0 -5.0675,9.47927 -5.76994,18.44624 -0.39084,4.98917 -1.38536,9.994 -2.21005,11.12182 -2.23,3.04971 -7.7215,1.16835 -10.69518,-3.66411 -3.93792,-6.39943 -9.94322,-26.5657 -9.94322,-33.39008 0,-7.51583 -1.60106,-8.85095 -15.90722,-13.2649 -17.48538,-5.39483 -20.74685,-5.254 -47.84278,2.06594 -17.91804,4.84054 -22.38465,1.48848 -17.5151,-13.14454 1.52464,-4.58153 2.57362,-8.44845 2.33109,-8.59312 -0.24255,-0.14468 -2.96646,-1.09313 -6.05315,-2.10765 -3.96149,-1.30206 -6.11554,-2.89731 -7.3236,-5.42375 -2.38221,-4.98195 -0.52813,-8.39068 6.88786,-12.66336 18.44584,-10.62746 22.38568,-13.98831 26.71979,-22.79311 13.38109,-27.183823 46.30883,-39.073015 82.66946,-29.849385 13.02483,3.304017 34.25664,13.334249 47.68241,22.525891 7.73366,5.294674 8.97332,5.735534 16.17589,5.752594 19.59439,0.0464 45.8376,11.76247 49.82217,22.24269 1.84853,4.862 -0.77253,6.39212 -14.47594,8.45071 -6.73311,1.01148 -12.62613,2.07644 -13.0956,2.3666 -0.46947,0.29014 1.7799,5.88992 4.99859,12.44395 10.79939,21.99003 18.53313,49.46421 18.63252,66.19215 0.18957,31.90422 -14.4903,72.9024 -36.3581,101.54147 l -4.87235,6.38106 2.05962,4.86894 c 5.6868,13.44364 6.90254,26.94748 3.57588,39.71938 -2.50875,9.63176 -10.28735,23.27457 -13.27025,23.27457 -0.56175,0 -1.90612,-3.23437 -2.98749,-7.1875 z m 11.8228,-11.07941 c 5.1462,-13.6447 4.37579,-30.79279 -1.9437,-43.2637 -1.68982,-3.33472 -2.65969,-6.74515 -2.15524,-7.57875 0.50445,-0.8336 3.53176,-4.89064 6.72739,-9.01564 20.10741,-25.95527 33.69505,-64.85169 33.69505,-96.4566 0,-36.37511 -23.99645,-86.93421 -51.71551,-108.96154 -25.9583,-20.628116 -52.86332,-31.429396 -78.33436,-31.448102 -26.72538,-0.01963 -43.95592,9.622707 -55.56389,31.093932 -4.32623,8.00221 -6.1523,10.00707 -13.75,15.09622 -4.81868,3.22769 -11.15187,7.19443 -14.07374,8.81498 -6.35888,3.52681 -7.10278,7.50543 -2.02536,10.8323 2.70902,1.77501 6.1715,2.13878 19.6875,2.06835 18.89654,-0.0985 33.62314,-2.73753 41.811,-7.49268 6.54,-3.79816 8.14006,-2.93271 3.51097,1.89901 l -3.39612,3.5448 11.61225,4.74202 c 6.38675,2.60811 17.99167,7.56667 25.78873,11.01902 14.36993,6.36266 15.11332,6.43403 16.80652,1.61336 0.53514,-1.52357 7.14201,0.20444 7.14201,1.86798 0,0.72145 -1.07414,0.9695 -2.38986,0.55191 -3.22954,-1.02502 -4.39331,4.45493 -3.27458,15.41925 1.2855,12.5987 4.12101,22.31514 9.57908,32.82453 4.91636,9.46636 12.72642,19.84626 14.93276,19.84626 0.63394,0 1.1526,-4.11665 1.1526,-9.14813 0,-13.52956 5.50896,-28.76335 11.0617,-30.58857 1.23254,-0.40515 1.12045,0.30976 -0.41633,2.65516 -2.05448,3.13557 -1.99716,3.34798 2.48514,9.20807 5.89188,7.70296 13.171,22.81633 18.24119,37.87347 7.38224,21.92333 6.30537,45.0144 -2.97299,63.75 -5.20829,10.51697 -6.67341,10.71324 -21.84397,2.92609 -10.99914,-5.64593 -12.51298,-6.07914 -22.6091,-6.47007 -8.7349,-0.33821 -12.20149,0.099 -17.98438,2.26843 -7.40216,2.77684 -9.82813,4.69475 -6.97798,5.51663 0.90295,0.26037 3.93016,1.09211 6.72713,1.84831 3.50912,0.94872 8.1586,4.22457 15,10.56846 11.8296,10.9693 13.26705,11.80323 22.14418,12.84655 l 6.86747,0.80714 0.53128,7.34495 c 0.42077,5.81712 2.00975,10.27214 7.63897,21.41745 3.90923,7.73989 7.11083,14.63019 7.11466,15.31179 0.004,0.6816 0.62414,3.46226 1.37847,6.17923 l 1.37149,4.93998 3.00441,-4.93998 c 1.65242,-2.71697 4.08925,-7.81632 5.41516,-11.33187 z M 203.79397,111.33218 c -1.70735,-3.19023 -1.6583,-10.95947 0.076,-12.031314 2.20842,-1.364876 4.91623,2.360094 5.56884,7.660704 l 0.60493,4.91343 -1.9347,-5.9375 c -2.32052,-7.121565 -4.36628,-7.710797 -4.3399,-1.25 0.0211,5.1572 0.8979,7.07298 3.73086,8.15139 1.51515,0.57676 1.46361,0.73268 -0.26853,0.81243 -1.17893,0.0543 -2.72581,-0.98934 -3.4375,-2.31914 z m 88.61163,105.97646 c -1.52284,-2.9885 -5.0328,-9.02099 -7.79991,-13.40554 -4.60379,-7.29476 -5.17231,-7.7788 -6.6934,-5.69859 -0.91427,1.25033 -1.66229,3.11383 -1.66229,4.14113 0,1.65438 17.51866,21.14438 18.5247,20.60924 0.21984,-0.11688 -0.84626,-2.65776 -2.3691,-5.64624 z m -59.55999,-12.00606 c 0.61709,-7.36063 2.12303,-13.32311 5.13357,-20.32533 0.61616,-1.43313 -1.79535,-3.1928 -9.85,-7.1875 -5.86625,-2.90936 -11.0176,-5.28975 -11.44743,-5.28975 -3.01652,0 4.51526,28.68555 9.76409,37.1875 3.92382,6.35574 5.59532,5.21048 6.39977,-4.38492 z M 242.5,176.40625 c 0,-9.9594 -0.9143,-11.21329 -12.35841,-16.94861 -5.92163,-2.96768 -17.951,-8.34489 -26.73197,-11.94938 l -15.96537,-6.55359 -4.68756,3.10209 c -15.98885,10.58093 -43.50746,18.49075 -45.68236,13.13074 -1.02172,-2.51804 -3.40126,1.66346 -3.02314,5.3125 0.47652,4.59871 6.57742,4.62533 21.28569,0.0929 17.88149,-5.51035 22.33577,-5.83768 35.28652,-2.59323 11.4819,2.87647 33.145,11.1174 43.82401,16.67122 7.8243,4.06914 8.05259,4.06164 8.05259,-0.26461 z m -90.24103,-20.30962 c 7.53067,-1.80163 27.43175,-11.12979 31.49103,-14.76068 2.62155,-2.34489 2.72224,-2.65829 0.625,-1.94528 -4.39694,1.49483 -20.91967,4.13503 -31.62209,5.05294 l -10.3721,0.8896 -2.48767,4.87626 c -1.36823,2.68195 -2.15197,5.41948 -1.74164,6.0834 0.99432,1.60885 6.90601,1.52662 14.10747,-0.19624 z M 336.25,128.61824 c 12.83304,-1.97132 13.38551,-2.37405 9.53471,-6.95047 -6.19639,-7.36399 -25.70474,-15.63055 -40.65921,-17.22911 l -7.9995,-0.85511 7.82197,8.52072 c 4.3021,4.6864 9.574,10.95299 11.71535,13.92574 3.25825,4.52333 4.40869,5.29273 7.05252,4.71668 1.73754,-0.37859 7.37791,-1.33639 12.53416,-2.12845 z M 132.88265,271.44486 c -19.55102,-14.30835 -22.37004,-16.84586 -25.5043,-22.95756 -6.27668,-12.23931 1.49773,-18.36122 11.11025,-8.7487 6.87169,6.87169 33.75496,44.53235 31.33264,43.89376 -0.24544,-0.0648 -7.86779,-5.54907 -16.93859,-12.1875 z m 2.53494,-6.75736 c -15.1599,-20.99989 -18.29486,-24.8184 -21.91091,-26.68833 -4.44765,-2.29996 -6.00668,-1.42094 -6.00668,3.38668 0,4.68261 2.48872,9.52781 7.07591,13.77582 3.21837,2.98042 27.97304,21.08833 28.82908,21.08833 0.19778,0 -3.39654,-5.20313 -7.9874,-11.5625 z m 248.4512,14.375 c 11.27547,-18.72466 23.12826,-32.7711 29.53896,-35.00589 5.55356,-1.93597 9.09225,0.0616 9.09225,5.13265 0,5.503 -5.3418,10.43477 -20.47925,18.90724 -6.51551,3.64676 -12.67145,8.16526 -14.8967,10.9343 -4.88349,6.07684 -6.90735,6.09654 -3.25526,0.0317 z M 405.625,263.83714 c 12.80101,-7.00902 18.03225,-13.42989 14.125,-17.33714 -3.97889,-3.97889 -11.68022,1.23192 -21.62774,14.63354 -7.65331,10.31078 -8.5422,12.68478 -3.43476,9.1734 1.89062,-1.2998 6.8125,-4.21123 10.9375,-6.4698 z M 368.4314,228.125 c -0.4359,-2.75 -1.4404,-11.87434 -2.23221,-20.2763 -1.32424,-14.05142 -1.25464,-15.65504 0.86806,-20 3.29844,-6.75154 7.34061,-7.07119 9.96586,-0.78809 2.33951,5.59925 1.80589,11.2232 -2.53239,26.68939 -1.63918,5.84375 -3.49703,12.59375 -4.12856,15 l -1.14822,4.375 -0.79254,-5 z M 373.55392,210 c 2.63519,-9.13646 3.46804,-19.03381 1.93734,-23.02276 -1.05331,-2.74489 -5.13621,-2.47629 -6.69728,0.44059 -2.02994,3.79298 -0.8854,35.36818 1.19459,32.95606 0.47376,-0.54939 2.07815,-5.21764 3.56535,-10.37389 z"
       id="path3418"
       inkscape:connector-curvature="0" />
  </g>
</svg>
