<?xml version="1.0" encoding="UTF-8" standalone="no"?>
<!-- Created with Inkscape (http://www.inkscape.org/) -->
<svg xmlns:dc="http://purl.org/dc/elements/1.1/" xmlns:cc="http://creativecommons.org/ns#" xmlns:rdf="http://www.w3.org/1999/02/22-rdf-syntax-ns#" xmlns:svg="http://www.w3.org/2000/svg" xmlns="http://www.w3.org/2000/svg" xmlns:sodipodi="http://sodipodi.sourceforge.net/DTD/sodipodi-0.dtd" xmlns:inkscape="http://www.inkscape.org/namespaces/inkscape" id="svg3500" version="1.1" inkscape:version="0.91 r13725" width="500" height="500" viewBox="0 0 500 500" sodipodi:docname="Duck.svg">
  <metadata id="metadata3506">
    <rdf:RDF>
      <cc:Work rdf:about="">
        <dc:format>image/svg+xml</dc:format>
        <dc:type rdf:resource="http://purl.org/dc/dcmitype/StillImage"/>
        <dc:title/>
      </cc:Work>
    </rdf:RDF>
  </metadata>
  <defs id="defs3504"/>
  <sodipodi:namedview pagecolor="#ffffff" bordercolor="#666666" borderopacity="1" objecttolerance="10" gridtolerance="10" guidetolerance="10" inkscape:pageopacity="0" inkscape:pageshadow="2" inkscape:window-width="2560" inkscape:window-height="1396" id="namedview3502" showgrid="false" inkscape:zoom="2.388" inkscape:cx="250" inkscape:cy="250" inkscape:window-x="0" inkscape:window-y="0" inkscape:window-maximized="1" inkscape:current-layer="svg3500"/>
  <g id="g3510">
   
    <path style="fill:#232323" d="m 123.21341,424.0625 c -3.38186,-10.83615 -7.95474,-19.49174 -14.75868,-27.93534 -6.80702,-8.44744 -7.04282,-12.08225 -0.27394,-4.22287 8.9304,10.36912 16.3089,24.32838 18.64976,35.28321 1.46144,6.83929 -1.23421,4.5104 -3.61714,-3.125 z m 17.39351,-2.43465 c -2.35687,-8.1074 -8.00288,-19.79409 -13.27962,-27.48755 -1.97469,-2.87909 -3.08743,-5.54551 -2.47276,-5.9254 2.75971,-1.70559 16.40996,24.41545 19.38633,37.0976 1.53972,6.56059 -1.57312,3.40431 -3.63395,-3.68465 z m 134.91932,-3.1102 c 6.09308,-19.32833 15.42942,-41.3471 17.09531,-40.31752 0.57885,0.35775 -0.41531,3.86218 -2.20925,7.78766 -1.79394,3.92546 -5.92141,14.70623 -9.17217,23.95727 -6.1986,17.64003 -10.70248,24.39723 -5.71389,8.57259 z m 25.7192,4.50319 c -0.002,-1.31772 2.88072,-8.20683 6.40716,-15.30914 5.19816,-10.46919 8.4191,-15.02272 17.01761,-24.05829 10.84943,-11.40088 22.84614,-20.35601 33.2364,-24.8098 8.63505,-3.70141 7.09818,-0.75645 -1.96911,3.77323 -21.64309,10.81205 -39.40516,29.63261 -49.17408,52.1045 -4.43629,10.20502 -5.51128,11.82188 -5.51798,8.2995 z m -61.60608,-2.93463 C 232.93609,412.11982 227.5,396.04354 227.5,384.18615 c 0,-10.57256 2.09315,-8.77963 2.81374,2.41017 0.75341,11.6996 3.79107,20.70588 10.28005,30.47898 4.74451,7.14576 4.13712,9.06189 -0.95443,3.01091 z M 335,422.4502 c 0,-2.58376 5.20484,-11.41973 9.57844,-16.26078 2.45857,-2.72136 8.57685,-7.50752 13.59615,-10.63591 5.0193,-3.12839 10.05335,-7.10331 11.1868,-8.83316 2.43413,-3.71496 2.86749,-9.99148 0.83048,-12.02848 -1.79753,-1.79753 -1.86037,-3.44187 -0.13153,-3.44187 0.72068,0 2.06018,1.78335 2.97666,3.963 3.23691,7.69834 -1.37629,15.04962 -14.4273,22.9904 -8.15701,4.96306 -16.07874,13.1353 -19.7963,20.42234 -2.5981,5.09267 -3.8134,6.31151 -3.8134,3.82446 z m -231.7725,-2.74333 c -2.48536,-3.79316 -5.193479,-11.59668 -6.302494,-18.16088 -1.373506,-8.12971 1.276688,-6.41799 2.928543,1.89151 0.785841,3.95312 2.789681,9.56848 4.452971,12.47855 3.15168,5.51414 2.21237,8.81411 -1.07902,3.79083 z m 220.09157,1.85714 c -0.99128,-1.60392 7.08551,-19.56701 12.45718,-27.70525 5.52114,-8.36469 23.943,-27.60876 26.42916,-27.60876 0.96908,0 -2.6676,4.35937 -8.08151,9.6875 -11.38756,11.20713 -20.10698,23.79007 -25.42935,36.69695 -4.16344,10.09645 -4.40564,10.4988 -5.37548,8.92956 z M 170,415.15716 c 0,-4.52047 -1.94575,-10.03694 -9.0938,-25.78216 -5.63321,-12.40845 -8.50114,-23.125 -6.18864,-23.125 0.65301,0 1.80153,3.05841 2.55223,6.79646 0.75071,3.73805 3.15374,10.34006 5.34005,14.67113 8.12776,16.101 12.28501,31.03241 8.64016,31.03241 -0.6875,0 -1.25,-1.61678 -1.25,-3.59284 z m 35,1.66858 c 0,-1.05835 0.60417,-7.38648 1.3426,-14.0625 1.59566,-14.42609 4.64475,-22.33595 9.03476,-23.43778 2.47124,-0.62025 3.1981,-1.78122 3.78192,-6.04065 0.3975,-2.90006 1.06552,-6.16616 1.4845,-7.25799 0.59159,-1.54167 -0.2546,-2.1038 -3.78788,-2.5163 -4.21904,-0.49255 -4.72734,-0.18286 -6.99472,4.2616 -1.34479,2.63602 -3.33099,8.71565 -4.41376,13.51032 C 204.36465,386.0771 202.97063,390 202.3496,390 c -1.68273,0 0.0909,-9.54169 3.4629,-18.62956 1.63352,-4.4025 2.69507,-8.27953 2.359,-8.6156 -0.33607,-0.33609 -6.69834,-2.17863 -14.13838,-4.09454 -7.44002,-1.91591 -39.20957,-11.96076 -70.599,-22.32189 -33.040505,-10.90612 -59.069121,-18.84037 -61.815401,-18.84309 -6.550644,-0.006 -12.439403,-3.86605 -13.884634,-9.10025 -1.101184,-3.98816 0.25305,-15.2535 2.773153,-23.06876 C 51.600282,281.9366 63.54593,273.75 67.399059,273.75 c 3.787073,0 7.245698,2.02217 9.139986,5.34393 l 1.585955,2.78107 3.9554,-4.0625 3.955399,-4.0625 -6.214374,0 c -3.417906,0 -8.690224,-0.62343 -11.716262,-1.38539 -5.672984,-1.42847 -15.673304,-8.90572 -14.084645,-10.5311 0.492535,-0.50391 2.893476,0.83802 5.335425,2.98208 2.441948,2.14406 5.976465,4.32828 7.854482,4.85385 4.52391,1.26601 21.534515,1.21729 30.914575,-0.0885 8.77047,-1.22096 8.28372,0.78785 -0.625,2.57937 l -5.625,1.13119 4.375,2.79713 c 3.599234,2.30115 5.75574,2.71947 12.16178,2.35917 9.59386,-0.53961 15.63082,-4.37471 24.60815,-15.63281 3.3797,-4.23836 6.62163,-7.41148 7.20431,-7.05136 1.63579,1.01097 -10.20851,15.46283 -16.10954,19.6561 -2.89316,2.05588 -4.96934,4.20875 -4.61373,4.78413 1.14791,1.85737 10.97958,1.05779 16.12403,-1.3113 2.75,-1.2664 8.64625,-5.15468 13.10276,-8.64061 4.45653,-3.48592 8.39403,-6.03457 8.75,-5.66366 1.26024,1.31309 -11.96345,11.83015 -19.66526,15.64016 -4.29687,2.12563 -7.8125,4.04235 -7.8125,4.25936 0,2.17245 3.39968,6.77087 5.82165,7.87439 7.49994,3.4172 16.54319,0.44254 27.92835,-9.18665 8.18561,-6.92312 24.64585,-15.2317 32.5,-16.40492 7.54395,-1.12689 5.20485,0.88795 -4.375,3.76847 -11.37252,3.41958 -14.8764,5.47563 -13.0604,7.66378 2.24829,2.70902 9.76726,2.14198 17.14548,-1.293 6.80755,-3.16933 21.30666,-12.99147 24.04095,-16.28608 0.8553,-1.03056 2.41713,-1.87376 3.47076,-1.87376 2.74287,0 -0.8291,3.74836 -8.58111,9.00485 -3.34192,2.26607 -6.09072,4.80349 -6.10844,5.63867 -0.0452,2.12866 4.10172,4.10644 8.61028,4.10644 4.41484,0 13.85748,-3.49954 13.85748,-5.13572 0,-0.61286 0.76286,-1.11428 1.69525,-1.11428 1.97982,0 10.61351,-6.35514 21.97206,-16.17333 4.42328,-3.82342 7.66119,-5.93051 7.19537,-4.68243 -0.70692,1.89406 -0.38326,2.12895 1.95768,1.4207 6.32463,-1.91351 18.02211,-9.01905 24.31345,-14.76896 8.78997,-8.03354 10.26403,-6.39759 1.68569,1.87082 -4.41512,4.25563 -10.48249,8.21379 -18.18021,11.86024 -6.35445,3.01012 -12.2001,5.47296 -12.99035,5.47296 -0.79024,0 -5.6527,3.35023 -10.80548,7.44494 -5.15276,4.09472 -10.28572,7.95815 -11.40656,8.58541 -1.2171,0.68111 -1.65021,1.76775 -1.07534,2.6979 1.4975,2.42301 9.86653,0.74495 19.1995,-3.84965 7.94335,-3.9105 21.94339,-16.1213 24.9292,-21.74319 0.72723,-1.36927 1.70984,-2.10199 2.18356,-1.62825 1.43123,1.43123 -4.15952,9.27168 -11.05465,15.50301 -6.99492,6.32153 -21.42381,13.87847 -28.77742,15.07179 -2.97848,0.48335 -5.52039,0.10575 -7.38004,-1.09627 -2.5289,-1.6346 -3.37926,-1.58765 -7.83671,0.4326 -7.06095,3.20023 -13.47681,2.98438 -17.63619,-0.59335 l -3.40059,-2.92508 -8.00993,4.17508 c -8.92205,4.65048 -14.95762,5.27375 -20.33117,2.09952 -3.50178,-2.06855 -3.54165,-2.05322 -11.85022,4.55811 -10.73923,8.54546 -16.19923,11.26743 -22.60135,11.26743 -6.24826,0 -13.24041,-4.28039 -14.29591,-8.75153 -0.55789,-2.36327 -1.76688,-3.26672 -5.0955,-3.80778 -2.40023,-0.39014 -5.06064,-1.13986 -5.91202,-1.66605 -0.85138,-0.52618 -5.61352,-1.05637 -10.58254,-1.17817 -7.208941,-0.17672 -9.853258,-0.80541 -13.08599,-3.1112 -3.905271,-2.78548 -4.180965,-2.81318 -7.643074,-0.76807 -5.689149,3.36066 -8.071545,8.46472 -7.149219,15.31651 0.726704,5.39855 0.641625,5.65738 -1.122497,3.41488 -1.04984,-1.33453 -1.9088,-3.3659 -1.9088,-4.51416 0,-1.55291 -0.800576,-1.93471 -3.125,-1.49037 -3.56144,0.68081 -3.963724,-0.28391 -1.25,-2.99764 2.386841,-2.38683 2.399268,-4.19642 0.02882,-4.19642 -1.015401,0 -2.803749,1.46143 -3.974106,3.24762 -1.654301,2.52478 -1.816199,3.74677 -0.727385,5.49023 1.704225,2.7289 0.539958,4.26934 -1.774814,2.34825 -2.330714,-1.93433 -2.089952,-4.76933 0.808789,-9.5236 1.816795,-2.97976 3.398014,-4.0731 5.932828,-4.10225 3.308753,-0.0381 3.352578,-0.11788 1.02946,-1.875 -3.143259,-2.37745 -8.077357,-2.35564 -8.996555,0.0398 -0.395728,1.03125 -1.458381,1.875 -2.36145,1.875 -2.047447,0 -3.569204,6.48031 -2.415064,10.28441 0.474,1.56233 2.018136,4.104 3.431412,5.64816 2.799772,3.05907 2.093211,5.36957 -0.885942,2.89709 -2.713878,-2.25231 -6.141823,-12.08538 -5.31516,-15.24655 0.664342,-2.54045 0.56661,-2.59126 -1.332053,-0.6926 -1.14989,1.14989 -2.192087,4.51188 -2.375091,7.66173 -0.276347,4.75647 0.167014,6.00062 2.906183,8.15525 1.777753,1.39838 4.843921,2.54251 6.813706,2.54251 1.969783,0 3.581426,0.5625 3.581426,1.25 0,2.36802 -7.160557,1.2436 -11.700566,-1.83733 L 50,297.57534 l 0,4.8601 c 0,2.67305 0.349415,5.77065 0.776476,6.88356 2.084228,5.4314 16.236706,7.42099 26.098524,3.66897 8.100686,-3.08197 9.375,-3.3499 9.375,-1.97112 0,0.71964 -2.943238,2.40636 -6.540527,3.74826 l -6.540527,2.43984 53.728024,17.73984 c 77.14222,25.47069 90.70439,28.55575 119.35303,27.14987 44.94055,-2.20536 94.99136,-32.25853 116.07185,-69.69573 2.16049,-3.83684 3.91105,-7.49309 3.89014,-8.125 -0.0209,-0.63192 -0.61798,-0.15273 -1.32683,1.06486 -0.70885,1.21759 -1.73765,1.9364 -2.28624,1.59735 -0.54858,-0.33904 0.61099,-3.80514 2.57683,-7.70244 1.96584,-3.8973 3.57425,-8.62536 3.57425,-10.5068 0,-1.88144 0.84375,-4.12104 1.875,-4.9769 4.66336,-3.87025 1.10414,-31.44335 -7.01041,-54.30915 -5.23284,-14.74552 -6.92012,-17.81589 -4.82534,-8.78076 1.57275,6.78352 1.54297,28.08991 -0.0392,28.08991 -0.7439,0 -1.25,-4.71567 -1.25,-11.64704 0,-9.81385 -3.15554,-28.17326 -5.19287,-30.21302 -0.23768,-0.23795 -0.43213,5.5676 -0.43213,12.90121 0,14.028 -2.26141,25.20885 -5.09866,25.20885 -1.30895,0 -1.24393,-0.96614 0.31543,-4.6875 2.67892,-6.39309 3.56135,-23.0377 1.69699,-32.00864 -1.74112,-8.37799 -2.77947,-8.01706 -4.87966,1.69614 -1.6191,7.48829 -6.0622,18.26356 -7.10206,17.22371 -0.35669,-0.3567 0.85266,-5.08107 2.68743,-10.49862 2.59553,-7.66382 3.4761,-13.11005 3.96733,-24.53759 0.69431,-16.15181 2.7882,-20.1968 2.7882,-5.38628 0,5.11568 0.51922,9.62213 1.15383,10.01434 0.63461,0.39221 1.51948,2.37791 1.9664,4.41269 0.63777,2.90377 1.15092,3.38349 2.38557,2.23016 1.25948,-1.17653 1.09835,-2.97567 -0.80836,-9.02641 -1.30975,-4.15635 -2.70299,-12.74521 -3.09608,-19.08638 l -0.71472,-11.52936 -5.97439,8.40436 c -3.28591,4.62242 -8.30606,12.48251 -11.15587,17.46688 -6.60898,11.55919 -9.24884,12.2108 -6.29667,1.55425 1.08759,-3.92588 1.02904,-4.128 -0.57991,-2.00199 -0.9843,1.30063 -1.98375,2.94709 -2.22099,3.65882 -0.24571,0.73713 -1.13971,0.85626 -2.07732,0.27678 -1.64665,-1.01769 -1.34534,-10.51338 0.51725,-16.30036 0.44256,-1.375 -0.3307,-0.53125 -1.71835,1.875 -2.13734,3.70626 -3.69964,7.78441 -7.09356,18.51673 -0.28554,0.90295 -1.05124,1.31288 -1.70155,0.91097 -2.48701,-1.53705 7.31572,-24.4277 10.46096,-24.4277 0.95999,0 1.99655,-0.70313 2.30346,-1.5625 0.30693,-0.85938 0.95671,-1.19396 1.44397,-0.74353 0.48728,0.45044 10e-4,3.42323 -1.07886,6.60619 -3.70316,10.9074 -2.25046,11.8907 3.37036,2.28131 2.9094,-4.97392 5.99295,-9.05205 6.85233,-9.0625 2.04202,-0.0247 2.07851,-0.19821 -1.69079,8.03503 -1.7893,3.90835 -3.0246,7.33479 -2.74509,7.61429 0.2795,0.2795 2.61512,-2.9909 5.19024,-7.26755 13.45751,-22.34957 24.28268,-33.96005 36.27329,-38.90475 5.57401,-2.29862 5.78485,-2.3353 5.78485,-1.00639 0,0.54428 -2.95313,2.45522 -6.5625,4.24652 -6.8202,3.38481 -17.1875,11.5997 -17.1875,13.61913 0,0.63824 2.34205,-0.53614 5.20456,-2.60973 10.46618,-7.58166 25.63775,-9.49831 39.94291,-5.04603 4.32863,1.34721 8.03335,2.28635 8.23274,2.08696 0.19939,-0.19938 -2.42801,-1.66953 -5.83865,-3.26699 -9.96082,-4.6654 -6.00526,-5.15888 4.637,-0.57849 13.71298,5.90202 31.01268,10.76948 39.07144,10.99318 6.0485,0.16791 6.875,-0.10225 6.875,-2.24701 0,-1.88307 -4.54358,-4.7951 -19.96486,-12.79576 -18.78222,-9.74431 -31.32978,-18.8884 -29.04878,-21.16941 0.4751,-0.4751 2.13503,0.50724 3.68873,2.18297 4.56901,4.92786 13.08059,10.27479 29.25014,18.3748 16.20935,8.11993 21.30262,12.54103 19.12827,16.60385 -0.69655,1.30152 -1.45114,2.36641 -1.67686,2.36641 -0.22573,0 -3.40567,0.56804 -7.06651,1.2623 -9.06821,1.71975 -17.94817,-0.0598 -35.93631,-7.20131 -13.48807,-5.35499 -15.49754,-5.81095 -25.87382,-5.87095 -12.16944,-0.0704 -18.98787,2.1077 -27.91571,8.9173 l -4.30335,3.28232 0.68711,11.36766 c 0.70774,11.70882 0.61934,11.4011 15.1154,52.61768 13.60334,38.67829 12.38593,64.4094 -4.39019,92.79111 -9.62398,16.28181 -35.34456,38.14426 -58.46242,49.69298 -10.51988,5.25528 -31.64416,12.46862 -40.32801,13.77085 -6.61889,0.99256 -6.73442,1.21096 -8.03345,15.1881 -1.07615,11.57891 1.77127,18.43058 10.01712,24.10387 3.18446,2.19096 5.45763,4.52128 5.05146,5.17846 -1.73525,2.8077 -14.7965,-9.61543 -16.941,-16.11333 -1.36495,-4.13585 -0.74881,-20.24753 0.94289,-24.65603 C 253.86021,365.40981 252.89089,365 248.98392,365 l -5.03353,0 -1.86618,8.4375 c -1.02639,4.64062 -2.22624,11.53125 -2.66634,15.3125 -1.21653,10.45224 -2.00366,13.75 -3.28196,13.75 -0.65365,0 -0.84111,-2.333 -0.42689,-5.3125 1.45427,-10.46049 4.37334,-27.85238 5.03525,-30 0.59748,-1.93858 -0.31716,-2.1875 -8.03776,-2.1875 -8.64785,0 -8.72205,0.029 -10.08422,3.93653 -2.64267,7.58073 -1.71332,18.78508 2.20196,26.54717 1.96584,3.8973 3.0845,7.38867 2.48593,7.75861 -1.51013,0.93331 -8.55799,-14.3452 -8.55919,-18.55481 -5.4e-4,-1.89063 -0.56349,-3.4375 -1.25099,-3.4375 -2.40925,0 -6.11709,4.89939 -6.8057,8.99277 -0.86754,5.15712 -3.1943,24.75999 -3.1943,26.91194 0,0.8774 -0.5625,1.59529 -1.25,1.59529 -0.6875,0 -1.25,-0.86593 -1.25,-1.92426 z M 428.75,139.8391 c -4.46875,-1.33487 -11.15979,-3.54436 -14.86896,-4.90995 -3.70918,-1.3656 -6.96376,-2.26309 -7.23242,-1.99444 -0.75045,0.75045 12.94333,6.06766 20.10106,7.80513 9.81838,2.38332 11.08497,1.81297 2.00032,-0.90074 z M 182.4928,415 c -0.1546,-0.34375 -0.40335,-5.96875 -0.55278,-12.5 -0.30141,-13.1751 -1.35487,-16.43425 -9.25456,-28.6313 -5.00868,-7.73335 -6.5323,-12.6187 -3.93546,-12.6187 0.6875,0 1.25,1.06848 1.25,2.37439 0,1.30591 2.04577,5.38404 4.54616,9.0625 6.43754,9.47061 8.91083,15.57686 9.79721,24.18811 0.63007,6.12112 -0.82772,20.39914 -1.85057,18.125 z m -37.13395,-9.80848 c -2.89638,-4.69537 -8.99593,-12.56556 -13.55454,-17.48928 -8.44145,-9.11755 -9.29199,-10.89387 -3.1077,-6.49025 6.14896,4.37845 23.80339,27.89726 23.80339,31.71033 0,2.51827 -2.46514,-0.15042 -7.14115,-7.7308 z m 46.68547,-2.26712 c -2.04948,-23.94075 -2.27583,-31.6744 -0.92702,-31.6744 0.76049,0 1.39911,1.26562 1.41916,2.8125 0.02,1.54687 0.57007,10.10936 1.22224,19.02776 0.66958,9.15633 0.71383,16.68721 0.10163,17.2994 -0.61218,0.61218 -1.40274,-2.63765 -1.81602,-7.46526 z M 298.75,397.46056 c 0,-4.22021 4.96755,-17.68816 8.97599,-24.33556 3.74265,-6.20663 15.66645,-19.375 17.54381,-19.375 2.2572,0 0.75011,3.89936 -1.89591,4.90538 -6.49733,2.47027 -17.9786,21.40333 -21.19803,34.95632 -1.52761,6.43091 -3.42586,8.56355 -3.42586,3.84886 z m -69.64821,-38.6726 c -5.375,-1.2774 -17.20643,-7.1292 -19.15069,-9.47187 -2.77044,-3.33819 -0.59979,-3.05568 4.99851,0.65056 10.63176,7.03851 26.38503,9.11789 41.79866,5.51727 2.34198,-0.54708 3.34408,-0.39463 2.83375,0.4311 -2.08366,3.37143 -20.91431,5.14633 -30.48023,2.87294 z m 23.08571,-9.68327 c -1.89063,-0.28642 -3.4375,-1.11948 -3.4375,-1.85127 0,-0.80932 1.6291,-1.06616 4.15874,-0.65566 6.14613,0.99739 22.60679,-1.14952 31.4972,-4.10806 6.9821,-2.32349 14.57687,-6.32823 24.65656,-13.00144 2.82825,-1.87244 3.4375,-1.94979 3.4375,-0.43641 0,1.01166 -3.35575,4.2831 -7.45723,7.26987 -4.10147,2.98677 -7.2493,5.63842 -6.99516,5.89257 1.00023,1.00021 19.86878,-9.20729 20.345,-11.00624 0.27911,-1.05433 3.03407,-3.25731 6.12211,-4.89553 7.57152,-4.01667 17.07197,-14.68567 20.55044,-23.07813 3.22131,-7.772 5.74413,-8.34248 3.04355,-0.68823 -6.79463,19.25808 -33.36216,39.00135 -62.28092,46.28318 -6.07868,1.53062 -9.06191,0.7687 -5.79159,-1.47919 1.4407,-0.99028 1.28628,-1.11054 -0.71325,-0.55546 -3.06932,0.85205 -20.68115,3.1896 -22.44795,2.97942 -0.6875,-0.0817 -2.79687,-0.38302 -4.6875,-0.66942 z M 150.86346,337.49902 c -8.80337,-5.88805 -21.74522,-18.38967 -24.64358,-23.8053 -2.40854,-4.5004 0.1584,-2.51461 9.36371,7.24378 5.02613,5.32812 13.10547,12.21875 17.95408,15.3125 8.22067,5.24535 10.57063,7.5 7.81705,7.5 -0.62991,0 -5.35097,-2.81294 -10.49126,-6.25098 z m 38.3063,-13.41695 c 0.44145,-0.71426 2.71396,-1.65723 5.05004,-2.09548 4.89387,-0.9181 19.39151,-6.61053 21.74791,-8.53923 1.79904,-1.4725 3.42889,-0.50485 2.2802,1.35376 -0.41383,0.66962 -4.88075,2.93609 -9.92646,5.03663 -9.87247,4.10991 -20.52807,6.47137 -19.15169,4.24432 z M 323.75,319.47889 c 0,-0.2866 3.68856,-4.06304 8.19679,-8.39208 6.13427,-5.89042 9.51442,-10.53005 13.43328,-18.43862 3.5163,-7.09619 4.73948,-10.73334 3.72352,-11.07199 -1.6396,-0.54654 0.41524,-5.15645 5.44092,-12.20644 1.46823,-2.05962 3.5489,-5.85414 4.62371,-8.43226 1.07482,-2.57813 2.54542,-4.6875 3.26799,-4.6875 0.77284,0 1.28971,-2.95945 1.25533,-7.1875 l -0.0585,-7.1875 -2.39978,6.14574 c -2.4802,6.35172 -4.45324,9.17597 -5.60544,8.02377 -0.36511,-0.3651 0.7219,-3.7026 2.41557,-7.41666 3.47332,-7.61671 6.1528,-22.03976 4.97,-26.75243 -0.45605,-1.81715 -0.24603,-3.12542 0.50178,-3.12542 2.14594,0 2.82134,6.44724 1.5059,14.375 -0.82017,4.94291 -0.82282,7.64206 -0.007,7.91666 2.74743,0.92566 0.62107,32.63681 -2.53034,37.7359 -2.04509,3.30904 -2.2238,0.62609 -0.5014,-7.52756 0.94399,-4.46875 1.72806,-9.4209 1.74239,-11.00476 0.0374,-4.12898 -8.84318,13.46305 -12.43472,24.63273 -1.6033,4.98629 -4.9792,12.2567 -7.502,16.1565 -5.76492,8.9111 -20.03751,22.04913 -20.03751,18.44442 z M 210,304.00406 c 0,-0.64043 2.67187,-2.16491 5.9375,-3.38775 3.26562,-1.22283 8.313,-3.80126 11.21639,-5.72985 5.9703,-3.96577 8.64058,-2.76248 2.91578,1.31393 C 223.57809,300.8228 210,306.10236 210,304.00406 Z m -60.83719,-3.58354 c 0.4562,-0.45621 3.63367,-1.817 7.061,-3.02398 3.42735,-1.20698 7.88959,-3.37515 9.9161,-4.81815 3.58276,-2.55115 6.68345,-1.69028 3.48195,0.96674 -4.88901,4.05751 -24.09571,10.51206 -20.45905,6.87539 z M 251.25,300.15184 c 0,-0.60399 3.10045,-3.74695 6.88989,-6.98438 7.77016,-6.63825 16.15307,-17.81141 21.36774,-28.47996 3.47715,-7.1138 6.44206,-9.80431 4.82119,-4.375 -2.87403,9.62706 -15.0986,26.47364 -25.96735,35.78542 -6.2915,5.39023 -7.11147,5.85767 -7.11147,4.05392 z m 75,-0.91408 c 0,-0.41923 2.77146,-3.79466 6.15881,-7.50096 6.67888,-7.30775 12.25648,-16.45466 15.7165,-25.77407 1.20729,-3.25175 2.65538,-5.62778 3.21799,-5.28007 1.32755,0.82046 -1.53808,8.86259 -6.42521,18.03179 C 339.46433,288.94677 326.25,303.47433 326.25,299.23776 Z M 63.817336,266.12035 c -4.253699,-1.69885 -6.423011,-3.6881 -5.554476,-5.09341 0.412594,-0.66759 1.809175,-0.21798 3.181989,1.0244 5.767306,5.21933 26.232029,3.05603 41.412011,-4.37762 3.97752,-1.9478 7.51463,-3.08391 7.86025,-2.52468 1.04515,1.6911 -14.231166,8.68065 -23.064611,10.55302 -9.505413,2.0148 -19.402814,2.1885 -23.835163,0.41829 z m 7.584533,-9.50774 c -4.359008,-2.1474 -9.305972,-8.69749 -8.07413,-10.69065 0.383997,-0.62132 1.73622,0.57725 3.00494,2.6635 4.60504,7.57238 13.757526,9.45774 27.957583,5.75909 4.023529,-1.048 7.610458,-1.6105 7.970958,-1.25 1.10639,1.10639 -0.20977,1.72846 -7.888614,3.72855 -9.524117,2.48073 -17.659171,2.40618 -22.970737,-0.21049 z M 72.1875,246.669 c -13.384049,-1.25326 -4.358996,-2.2998 20.625,-2.39165 34.6416,-0.12735 41.04209,-1.72018 77.14035,-19.19714 31.39279,-15.1988 36.8502,-16.93521 52.54715,-16.71915 6.53125,0.0899 12.71875,0.37814 13.75,0.64054 3.69739,0.9408 20.64915,7.72092 21.8125,8.72425 2.34195,2.0198 -3.36449,0.98372 -10.9743,-1.99254 -24.45675,-9.56521 -37.47885,-7.64901 -75.2132,11.06759 -25.72391,12.75931 -29.97198,14.41639 -45.04366,17.57049 -9.8954,2.07085 -42.448234,3.4396 -54.64384,2.29761 z M 280,240.41093 c 0,-0.46149 0.93242,-1.86939 2.07205,-3.12867 1.98395,-2.19223 1.90535,-2.23148 -1.84843,-0.92291 -6.95408,2.42421 -7.28101,0.39534 -0.60115,-3.73055 4.01783,-2.48164 6.25237,-4.65199 5.85519,-5.68701 -0.49756,-1.29663 -1.82734,-1.01145 -5.90134,1.26556 -2.89248,1.61663 -8.90231,3.79801 -13.35518,4.84751 C 256.83856,235.26625 255,235.40679 255,233.91264 c 0,-0.59807 3.4418,-1.76452 7.64844,-2.59212 6.8529,-1.34822 8.5106,-2.33256 15.9375,-9.46362 4.55898,-4.37739 9.35773,-9.82031 10.66389,-12.0954 l 2.37482,-4.1365 -3.99649,3.72805 c -2.42192,2.25924 -4.34254,3.22371 -4.87482,2.44799 -0.48309,-0.70403 -3.31045,-1.32625 -6.28303,-1.38273 -2.97257,-0.0565 -6.06632,-0.80946 -6.875,-1.6733 -1.16903,-1.24877 -0.53784,-1.42982 3.0804,-0.8836 6.68992,1.00996 13.78701,-1.0026 17.10671,-4.85104 1.82885,-2.12013 2.41705,-3.67356 1.58555,-4.18746 -1.58986,-0.98259 -0.98013,-4.77982 1.55455,-9.68136 2.84237,-5.49654 3.95614,-12.98048 2.10228,-14.12623 -1.20729,-0.74615 -0.86335,-3.91073 1.53891,-14.15941 1.82063,-7.76727 2.63329,-13.65891 1.97488,-14.31732 -1.38446,-1.38447 4.37826,-29.32682 7.88941,-38.2542 7.52188,-19.125038 18.58227,-31.960855 31.96627,-37.097508 9.92639,-3.809652 23.27532,-3.792046 33.48073,0.04416 9.09761,3.419786 22.63061,16.342162 25.86412,24.697104 3.04507,7.868014 0.45404,7.685614 -3.16659,-0.22291 -9.99269,-21.826894 -37.25297,-31.454125 -58.4477,-20.641374 -6.81079,3.4746 -16.7871,12.863095 -20.62208,19.406969 -5.49427,9.375269 -9.60706,20.787649 -7.87681,21.856999 1.18431,0.73195 0.91125,2.48629 -1.1644,7.48087 -1.49135,3.58858 -2.6871,7.1528 -2.65723,7.92049 0.0299,0.7677 1.90643,-3.10419 4.1701,-8.60419 5.32978,-12.94958 8.59318,-19.28154 15.46157,-30.000001 4.28247,-6.682997 4.82852,-8.028817 2.31156,-5.697102 -1.8125,1.679095 -5.08476,5.841306 -7.27171,9.249359 -2.18694,3.408054 -4.18139,5.581064 -4.4321,4.828904 -0.96335,-2.890048 7.06298,-14.081743 13.52566,-18.859806 5.90843,-4.368298 5.88211,-0.452867 -0.0587,8.738808 -2.82529,4.371265 -4.55819,8.140653 -3.8509,8.376415 0.74546,0.248493 0.0439,2.884273 -1.66938,6.271043 -3.48225,6.88399 -8.81065,19.53591 -10.09396,23.96738 -0.87411,3.01843 -0.8401,3.03981 0.99711,0.62697 2.27866,-2.9926 4.0712,-1.84386 2.24514,1.43881 -1.83715,3.30261 -4.94653,18.55488 -5.92173,29.0476 -1.21642,13.08822 -3.53771,13.10716 -2.67511,0.0219 0.38716,-5.8732 0.25485,-9.13147 -0.29989,-7.3852 -0.546,1.71875 -1.0488,5.51563 -1.11732,8.4375 -0.0685,2.92182 -0.6871,5.31245 -1.3746,5.31245 -2.30219,0 -1.28239,-14.27486 1.82725,-25.57738 3.31714,-12.05673 3.39101,-16.50506 0.091,-5.48341 -4.15396,13.87398 -6.96131,29.01168 -5.54291,29.88829 0.98421,0.60829 0.92161,2.9145 -0.22253,8.19696 -0.87564,4.0428 -1.70489,9.60054 -1.84276,12.35054 -0.74299,14.8184 -4.01942,22.53929 -14.27026,33.62772 l -5.66485,6.12773 6.51428,-4.25273 c 4.62573,-3.01981 7.70604,-6.34561 10.625,-11.47178 5.84688,-10.26807 7.14629,-12.00622 7.19597,-9.62568 0.0219,1.0479 -2.43624,6.25008 -5.46245,11.56039 -3.02622,5.3103 -4.85434,9.24843 -4.0625,8.75138 0.79184,-0.49705 2.75355,-1.08429 4.35937,-1.30499 l 2.91969,-0.40128 -3.38055,4.43213 c -1.85929,2.43766 -3.87721,4.43211 -4.48425,4.43211 -0.60705,0 -3.1243,2.8125 -5.5939,6.25 -4.01231,5.58492 -6.7556,7.78216 -6.7556,5.41093 z M 298.643,168.75 c -0.0452,-1.23633 -0.43465,-1.02342 -1.143,0.625 -1.47665,3.43636 -1.47665,5.40996 0,3.125 0.66645,-1.03125 1.1808,-2.71875 1.143,-3.75 z m 14.6646,-50.85907 c -0.54039,-0.54038 -4.61254,9.09205 -4.4693,10.57187 0.0485,0.50171 1.18531,-1.56041 2.52613,-4.58251 1.3408,-3.02209 2.21523,-5.7173 1.94317,-5.98936 z M 317.39964,110 c 1.40331,-2.94658 1.37728,-2.98647 -0.45568,-0.69859 -1.06919,1.33453 -1.94396,2.97515 -1.94396,3.64583 0,1.58818 0.57738,0.87905 2.39964,-2.94724 z M 261.25,215.4952 c -7.72851,-2.06873 -12.00643,-5.471 -10.80751,-8.59534 0.43442,-1.13207 1.3655,-1.70255 2.06907,-1.26771 0.70358,0.43482 0.9556,1.31422 0.56005,1.95422 -0.39554,0.63999 0.18573,1.16363 1.29169,1.16363 1.10598,0 3.71021,0.87878 5.78723,1.95284 2.077,1.07406 6.68968,2.15429 10.25042,2.4005 3.56073,0.24621 6.33343,0.77369 6.16155,1.17216 -0.17187,0.39848 -0.3125,1.287 -0.3125,1.9745 0,1.76017 -6.90185,1.41288 -15,-0.7548 z m 117.5,-90.42432 c 0,-0.64852 1.12142,-1.96459 2.49205,-2.92462 1.37063,-0.96002 2.11978,-2.11777 1.66479,-2.57276 -1.19932,-1.19931 2.22444,-7.0735 4.12275,-7.0735 2.29664,0 3.33323,-7.21059 1.9318,-13.4375 -0.72618,-3.226556 -0.7416,-5.3125 -0.0392,-5.3125 0.636,0 1.34052,0.703125 1.56561,1.5625 0.22509,0.859375 1.08326,3.659892 1.90705,6.22337 1.26148,3.92549 1.16501,5.36219 -0.61144,9.10576 -1.16007,2.44469 -3.26759,5.25623 -4.68336,6.24788 -3.65044,2.55686 -1.72165,3.73927 2.05889,1.26217 3.22246,-2.11146 7.09111,-8.8781 7.09111,-12.40309 0,-1.09922 0.5625,-1.99859 1.25,-1.99859 1.99276,0 1.45901,3.77893 -1.35472,9.59133 -2.04263,4.21952 -3.93086,5.98901 -8.75,8.19984 -3.3799,1.55056 -6.14528,3.24437 -6.14528,3.76402 0,0.51965 -0.5625,0.94481 -1.25,0.94481 -0.6875,0 -1.25,-0.5306 -1.25,-1.17912 z m 31.06596,-4.87118 c -2.18541,-1.95267 -3.45991,-3.86301 -2.83221,-4.24522 0.62769,-0.38221 3.34434,1.21543 6.03701,3.5503 3.23158,2.80217 4.19432,4.24522 2.83223,4.24522 -1.13495,0 -3.85162,-1.59763 -6.03703,-3.5503 z M 361.25,95.887783 c -4.01725,-2.025162 -4.57155,-6.006825 -1.25415,-9.009022 2.43634,-2.204866 2.94823,-2.233914 7.86753,-0.446463 3.86288,1.403602 5.37626,2.694835 5.69283,4.857236 0.78698,5.375402 -5.84727,7.854305 -12.30621,4.598249 z m 8.02276,-1.646519 c 2.98489,-1.145407 2.37595,-3.658311 -1.2914,-5.329267 C 363.89789,87.051441 360,88.183526 360,91.230068 c 0,3.248027 4.68821,4.770455 9.27276,3.011196 z M 332.5,87.611117 c 0,-3.216968 19.14809,-15.000806 20.58845,-12.670247 0.39635,0.641304 -1.71186,2.242016 -4.68491,3.557139 -2.97305,1.315122 -7.41999,4.159825 -9.88207,6.321561 C 333.8675,88.905818 332.5,89.539786 332.5,87.611117 Z" id="path3512" inkscape:connector-curvature="0"/>
  </g>
</svg>