<?xml version="1.0" encoding="UTF-8" standalone="no"?>
<!-- Created with Inkscape (http://www.inkscape.org/) -->

<svg
   xmlns:dc="http://purl.org/dc/elements/1.1/"
   xmlns:cc="http://creativecommons.org/ns#"
   xmlns:rdf="http://www.w3.org/1999/02/22-rdf-syntax-ns#"
   xmlns:svg="http://www.w3.org/2000/svg"
   xmlns="http://www.w3.org/2000/svg"
   xmlns:sodipodi="http://sodipodi.sourceforge.net/DTD/sodipodi-0.dtd"
   xmlns:inkscape="http://www.inkscape.org/namespaces/inkscape"
   id="svg3500"
   version="1.1"
   inkscape:version="0.91 r13725"
   width="500"
   height="500"
   viewBox="0 0 500 500"
   sodipodi:docname="Elephant.svg">
  <metadata
     id="metadata3506">
    <rdf:RDF>
      <cc:Work
         rdf:about="">
        <dc:format>image/svg+xml</dc:format>
        <dc:type
           rdf:resource="http://purl.org/dc/dcmitype/StillImage" />
        <dc:title></dc:title>
      </cc:Work>
    </rdf:RDF>
  </metadata>
  <defs
     id="defs3504" />
  <sodipodi:namedview
     pagecolor="#ffffff"
     bordercolor="#666666"
     borderopacity="1"
     objecttolerance="10"
     gridtolerance="10"
     guidetolerance="10"
     inkscape:pageopacity="0"
     inkscape:pageshadow="2"
     inkscape:window-width="2560"
     inkscape:window-height="1392"
     id="namedview3502"
     showgrid="false"
     inkscape:zoom="2.452"
     inkscape:cx="250"
     inkscape:cy="250"
     inkscape:window-x="0"
     inkscape:window-y="0"
     inkscape:window-maximized="1"
     inkscape:current-layer="svg3500" />
  <g
     id="g3510">
    <path
       style="fill:#000000; stroke:black;"
       d="m 233.71274,445.06961 c 1.43175,-2.67523 3.81022,-4.55129 3.74751,-2.95588 -0.0548,1.39425 -3.17099,5.38627 -4.20454,5.38627 -0.46401,0 -0.25835,-1.09367 0.45703,-2.43039 z m -4.21715,-2.28491 c 2.22591,-1.83444 2.39849,-2.5799 1.14586,-4.94986 -1.32968,-2.51575 -1.71035,-2.61186 -3.87059,-0.97726 -3.17089,2.39936 -4.27086,2.33946 -4.27086,-0.23258 0,-1.65278 -0.33334,-1.79166 -1.5,-0.625 -0.825,0.825 -2.41984,1.5 -3.54409,1.5 -1.80576,0 -2.23236,-4.1171 -3.65897,-35.3125 -2.27119,-49.66313 -2.69761,-50.73574 -6.06629,-15.25875 C 204.67085,419.15292 203.00969,430 201.13458,430 c -0.65349,0 -1.85113,1.45502 -2.6614,3.23338 -1.35604,2.97618 -1.59937,3.06086 -3.05913,1.06452 -1.31515,-1.79859 -1.9167,-1.89434 -3.52342,-0.56086 -1.59872,1.32681 -2.3351,1.24819 -4.21118,-0.44964 -2.1194,-1.91803 -2.42779,-1.88732 -4.54529,0.45248 -3.0256,3.34326 -4.46891,3.18912 -12.48152,-1.33292 -8.41298,-4.74798 -12.3575,-4.53056 -12.95293,0.71398 -0.54207,4.77452 -1.33731,5.20872 -11.31944,6.18055 -4.5404,0.44204 -9.87252,1.12144 -11.84916,1.50977 -2.21035,0.43425 -3.30021,0.23092 -2.83105,-0.5282 0.41955,-0.67885 5.44595,-1.62437 11.16978,-2.10117 5.72383,-0.47679 11.02517,-1.24898 11.78077,-1.71595 0.75559,-0.46699 1.56519,-2.478 1.7991,-4.46893 0.77544,-6.60016 3.68614,-6.89266 14.29073,-1.43608 l 9.52522,4.9012 2.31181,-3.04357 c 2.03053,-2.67325 2.6289,-2.8483 4.91802,-1.43871 2.99845,1.84638 4.99222,1.0575 5.03231,-1.99112 0.0217,-1.65038 0.56364,-1.42869 2.4722,1.01127 l 2.44441,3.125 0.0675,-5 c 0.0604,-4.4683 0.24699,-4.76347 1.75496,-2.77576 1.48127,1.95251 1.77887,1.98591 2.436,0.27342 0.41174,-1.07293 2.58003,-20.21447 4.81843,-42.53673 2.23845,-22.32227 4.49935,-40.58593 5.02429,-40.58593 0.52492,0 0.96662,2.10937 0.98156,4.6875 0.015,2.57812 0.84646,19.03125 1.84785,36.5625 1.00139,17.53125 1.85544,34.125 1.8979,36.875 0.0769,4.9817 0.0836,4.98829 1.81718,1.80086 2.32154,-4.26841 5.25189,-20.89555 6.92632,-39.30086 1.88645,-20.7358 4.41602,-36.05478 8.97877,-54.375 4.41767,-17.73767 5.8927,-36.6906 3.6396,-46.76529 -0.78226,-3.49785 -2.21856,-16.48471 -3.19178,-28.85971 -1.58718,-20.18156 -4.45242,-37.45536 -8.44913,-50.9375 -1.56507,-5.27949 -2.95995,-5.64702 -10.85704,-2.86078 -11.59607,4.09134 -50.37622,7.70773 -57.08107,5.32302 -4.53479,-1.61288 -7.55239,2.75916 -9.10378,13.19 -0.7612,5.11795 -2.97465,13.74458 -4.91877,19.17031 -3.45551,9.64374 -3.49629,10.06116 -1.81823,18.61495 2.49794,12.7331 2.43827,49.49356 -0.10462,64.42726 -3.80549,22.34875 -9.13549,35.91345 -18.74946,47.71681 l -5.40812,6.6397 2.33899,3.73312 c 1.28645,2.05321 4.06034,7.10811 6.16421,11.23311 l 3.82522,7.5 -3.8906,-3.67136 c -4.3973,-4.14952 -4.58929,-3.72035 -2.06186,4.60886 2.00788,6.61704 1.35229,7.19125 -3.68581,3.22829 l -3.44421,-2.70923 0.77564,2.70923 c 2.3912,8.35221 2.32594,8.50457 -1.69577,3.95921 l -3.87097,-4.375 0.82769,7.5 c 0.45523,4.125 0.52366,7.21875 0.15208,6.875 -0.37158,-0.34375 -2.11207,-4.44251 -3.86774,-9.10836 -1.75567,-4.66587 -4.05332,-9.71289 -5.10589,-11.21564 -1.80603,-2.57847 -1.91375,-2.29445 -1.91375,5.04586 0,7.46816 -1.85554,10.80191 -2.763829,4.96564 -0.240738,-1.54688 -0.854077,1.8108 -1.362976,7.4615 -1.152149,12.79321 -3.174939,18.95776 -3.293962,10.0385 C 95.035655,418.92187 94.4375,416.25 93.75,416.25 c -0.6875,0 -1.326603,-1.82813 -1.420228,-4.0625 -0.1231,-2.93782 -0.320197,-3.28387 -0.711938,-1.25 -0.815182,4.23232 -2.85214,3.37805 -2.980569,-1.25 L 88.524527,405.625 87.200459,410 c -1.29529,4.2799 -1.344473,4.30707 -2.262665,1.25 -0.516228,-1.71875 -0.994665,-6.8496 -1.063195,-11.40189 L 83.75,391.57121 74.01461,391.00764 c -11.145869,-0.64523 -20.303285,-4.7493 -26.600675,-11.92164 -4.421147,-5.03541 -4.494489,-6.62489 -0.68334,-14.80958 3.254705,-6.98971 8.873081,-12.23702 12.177203,-11.37297 1.317022,0.34441 2.354746,-0.31641 2.725947,-1.73589 0.928284,-3.54976 8.167885,-7.39474 12.3489,-6.55854 2.961559,0.59232 3.427139,0.36035 2.760985,-1.37562 -1.231615,-3.20954 5.025796,-1.6179 10.386013,2.64177 8.226323,6.53734 7.491295,6.59422 14.735707,-1.14015 5.44978,-5.81835 6.99512,-8.47917 8.34866,-14.375 2.14617,-9.34838 1.9201,-36.45636 -0.37306,-44.73502 l -1.73123,-6.25 -4.99236,0.34887 -4.99236,0.34887 4.55994,-4.09887 4.55993,-4.09887 -1.84172,-5 c -1.01294,-2.75 -3.146,-10.625 -4.74013,-17.5 -1.594133,-6.875 -3.379831,-12.37206 -3.968221,-12.21569 -0.588389,0.15636 -6.413549,2.47111 -12.944799,5.14388 -10.44929,4.27612 -13.225673,4.88788 -23.125,5.09545 -13.162595,0.27598 -13.00887,-0.92713 0.625,-4.89153 10.832317,-3.14977 17.793007,-6.86695 27.649006,-14.76524 l 7.024005,-5.62882 1.461624,-14.417 c 1.80248,-17.77911 4.967695,-27.4499 16.530295,-50.5056 8.00106,-15.95401 8.91269,-18.51066 8.72505,-24.46918 -0.18994,-6.0314 0.63344,-8.25276 8.80331,-23.75 12.85668,-24.387589 24.56926,-35.51051 42.32765,-40.196734 6.97731,-1.84123 14.44785,-6.114509 21.77352,-12.454834 7.88999,-6.828738 10.49796,-7.437675 14.0698,-3.28517 3.39706,3.949329 3.75764,9.959012 0.99433,16.572542 -2.64494,6.330251 -1.09735,6.875281 3.61757,1.274026 4.50049,-5.346533 6.78169,-6.094635 43.27384,-14.191348 16.7669,-3.720163 23.19706,-4.580792 34.375,-4.60083 19.20355,-0.03442 24.4133,1.493837 35.67289,10.464517 5.12991,4.087073 11.01461,7.739098 13.07711,8.115611 2.09044,0.381611 7.89891,-0.463793 13.125,-1.910295 20.28685,-5.615105 26.84839,-6.571273 34.37364,-5.009039 3.85749,0.800811 10.1231,3.091705 13.92357,5.090875 10.71067,5.634133 51.6311,36.445689 60.05797,45.221379 11.67358,12.15683 13.11851,15.86178 14.25958,36.56303 0.53054,9.625 1.89513,21.71875 3.03244,26.875 3.82116,17.3242 3.72861,18.95146 -2.38179,41.875 -5.08036,19.05935 -10.44367,35.9376 -18.16222,57.15627 -3.40214,9.35263 -3.38453,21.48015 0.0605,41.69597 2.31946,13.61073 2.46897,16.63355 1.15684,23.38931 -1.92353,9.90354 -1.89885,9.12054 -1.54443,49.00845 0.30906,34.78346 0.80351,37.23991 4.67306,23.21618 l 1.57727,-5.71618 0.24283,6.25 0.24284,6.25 1.48961,-4.8053 1.48962,-4.8053 1.62326,3.5553 1.62325,3.5553 1.5045,-3.67279 c 1.5036,-3.67061 1.50546,-3.6684 3.15699,3.75 0.90887,4.08253 2.7302,10.1678 4.04738,13.5228 1.31719,3.35502 2.16965,6.32525 1.89437,6.60054 -0.80037,0.80036 -5.54058,-10.99625 -6.50817,-16.19634 -0.97912,-5.26215 -1.75243,-5.10986 -3.92535,0.773 l -1.4674,3.97279 -0.0951,-4.6875 c -0.11688,-5.76381 -1.49226,-5.9915 -3.77526,-0.625 l -1.72825,4.0625 -0.52462,-3.65302 c -0.5246,-3.65284 -0.52476,-3.65275 -3.21065,1.875 l -2.68601,5.52802 -0.79076,-30 c -0.43491,-16.5 -0.93588,-35.90625 -1.11324,-43.125 l -0.3225,-13.125 -3.01522,29.375 c -1.65838,16.15625 -3.50082,31.0625 -4.0943,33.125 -1.06432,3.69873 -1.08108,3.68164 -1.22582,-1.25 -0.20823,-7.09452 -2.53585,-10.35489 -2.67718,-3.75 -0.0589,2.75 -0.54685,6.125 -1.08444,7.5 -0.72646,1.8581 -1.23959,0.57431 -1.99845,-5 -0.56156,-4.125 -1.23613,-6.375 -1.49901,-5 -0.26289,1.375 -1.13177,5.59375 -1.93083,9.375 l -1.45285,6.875 -0.67956,-5.625 c -0.67145,-5.55779 -0.7144,-5.47822 -3.59505,6.65864 -1.60351,6.75601 -3.1716,12.02752 -3.48464,11.71449 -0.31305,-0.31304 -1.66857,-5.27819 -3.0123,-11.03365 -1.34372,-5.75547 -2.78869,-11.87073 -3.21104,-13.58948 -0.59216,-2.40982 -1.5644,-0.17424 -4.24821,9.76853 -1.91417,7.09145 -3.73082,13.14406 -4.03702,13.45025 -0.30619,0.30618 -1.5739,-1.69903 -2.81714,-4.45603 -1.24324,-2.75701 -2.59689,-5.0098 -3.00809,-5.00619 -0.41121,0.004 -1.59141,2.64184 -2.62266,5.86272 -1.03125,3.22088 -2.48163,6.04515 -3.22306,6.27612 -0.74143,0.23099 -2.41623,-1.56349 -3.72175,-3.98771 C 397.01099,420.14763 395,418.67264 395,421.25 c 0,2.52367 -5.10019,6.25 -8.55431,6.25 -1.95488,0 -6.87675,1.16172 -10.9375,2.58161 -10.97313,3.83689 -24.59252,6.19058 -34.68065,5.99348 -8.91235,-0.17413 -8.89724,-0.17948 3.36952,-1.19069 15.87454,-1.30862 17.76449,-2.15379 5.17794,-2.31554 -17.09051,-0.21962 -24.14743,-3.17091 -22.42471,-9.37829 0.39161,-1.41106 2.06295,-5.68777 3.71408,-9.5038 1.7324,-4.0038 3.54408,-11.6695 4.2836,-18.125 1.66313,-14.51797 1.64567,-45.19645 -0.0316,-55.56177 -1.73178,-10.70199 -16.3405,-55.14529 -18.38433,-55.92958 -3.01497,-1.15696 -11.46777,5.9307 -17.87117,14.98497 l -6.41426,9.06961 0.7164,8.75 c 0.39402,4.8125 1.8718,15.21875 3.28395,23.125 8.48515,47.50635 12.50306,75.23721 12.50306,86.2938 0,8.56987 -2.35816,9.96144 -16.84064,9.93772 -6.2064,-0.01 -14.85062,-0.8592 -19.20939,-1.88673 l -7.92501,-1.86827 -3.514,3.76174 c -3.26841,3.49885 -4.15595,3.76843 -12.69997,3.85738 -11.18585,0.1165 -12.86493,0.41076 -16.70723,2.92832 -4.02665,2.63838 -5.65004,2.47366 -2.35817,-0.23926 z m 28.13586,-6.60505 C 259.56114,435.14691 260,433.49083 260,427.24184 l 0,-7.6702 -8.57578,8.02667 c -11.71848,10.96817 -11.93853,11.70325 -3.19585,10.67573 3.86899,-0.45473 8.10037,-1.3972 9.40308,-2.09439 z M 238.05685,432.5 c 0.42961,0 0.17903,1.125 -0.55685,2.5 -2.63786,4.9289 1.03721,2.33066 11.05042,-7.8125 l 10.18038,-10.3125 0.01,-9.8604 c 0.007,-8.25101 1.1318,-13.69868 6.88516,-33.37704 9.04906,-30.95069 14.03985,-44.49056 22.48454,-60.9998 9.46107,-18.49627 13.74497,-23.70257 26.93879,-32.73919 6.20325,-4.24868 14.66465,-11.42011 18.8031,-15.93651 C 346.25033,250.43146 355,229.58586 355,213.5781 c 0,-6.2318 -0.42161,-7.47829 -3.29358,-9.73737 -2.08087,-1.63682 -2.61246,-2.59073 -1.44373,-2.59073 4.04348,0 6.57479,4.90296 6.40242,12.40101 -0.49141,21.37659 -13.62269,46.95498 -31.01334,60.41085 -6.57963,5.09094 -7.58525,7.18814 -3.44675,7.18814 1.13163,0 6.94025,3.09537 12.90807,6.87861 21.5903,13.68695 32.50928,16.84115 50.14705,14.48614 13.18547,-1.76054 18.06786,-3.15218 23.38932,-6.6667 2.35095,-1.55268 5.33314,-3.45191 6.62708,-4.22051 3.79373,-2.25349 19.9279,-23.17938 25.84418,-33.51971 9.11578,-15.93232 12.96413,-28.88287 13.61575,-45.82003 0.42928,-11.15761 0.0756,-16.1442 -1.53852,-21.69686 -1.15275,-3.96532 -1.81465,-7.4909 -1.4709,-7.83465 0.34375,-0.34375 1.61576,2.66984 2.8267,6.69685 2.90615,9.66459 2.85621,29.37303 -0.1025,40.44686 -3.43812,12.86812 -8.97101,24.67327 -17.57207,37.49232 -9.64905,14.38098 -26.93438,34.44092 -28.07997,32.58732 -0.5619,-0.90918 -1.52923,-0.81205 -3.05995,0.30724 -1.96567,1.43733 -2.05959,2.23668 -0.77096,6.56241 2.21758,7.44411 3.08254,38.35686 1.37948,49.30071 -0.80242,5.15625 -3.13214,14.25425 -5.17719,20.21777 -2.4405,7.11674 -4.18176,15.56913 -5.06709,24.59649 l -1.34882,13.75373 4.11318,5.97831 4.11319,5.97832 1.57671,-3.69981 c 0.86719,-2.0349 1.96761,-6.4561 2.4454,-9.8249 l 0.86869,-6.12509 2.46667,6.75009 c 1.35669,3.71255 2.86438,7.18831 3.35043,7.72393 0.48605,0.53561 2.50451,-5.47129 4.48549,-13.34866 3.33143,-13.24757 5.57556,-17.32288 5.57556,-10.12518 0,1.6376 0.5625,3.3251 1.25,3.75 0.75724,0.468 1.26739,-1.35076 1.29411,-4.61373 0.15851,-19.35351 2.60583,-38.76028 6.82693,-54.13627 7.39243,-26.92812 15.82952,-52.07556 18.30067,-54.54671 1.28056,-1.28056 2.32829,-3.16545 2.32829,-4.18865 0,-1.0232 1.91306,-6.50758 4.25125,-12.1875 5.60569,-13.61734 13.39571,-38.24338 18.31642,-57.90237 4.29423,-17.15611 4.33317,-19.72252 0.59636,-39.29977 -1.11543,-5.84375 -2.44864,-17.97094 -2.96268,-26.94933 -0.83234,-14.5377 -1.30356,-16.95385 -4.30557,-22.07638 -4.98324,-8.50326 -12.3655,-15.30791 -32.991,-30.40966 -39.10585,-28.632858 -45.01268,-31.605669 -59.64744,-30.019621 -7.04239,0.763221 -22.37558,4.486771 -29.29875,7.114983 l -2.9164,1.107143 3.2289,3.837339 c 2.26543,2.692311 3.22891,5.293755 3.22891,8.718234 0,2.684491 0.67586,8.822206 1.50191,13.639364 1.48139,8.638808 1.44449,8.899568 -2.70108,19.085698 -2.31165,5.67998 -5.37954,12.01473 -6.81756,14.07723 -1.438,2.0625 -3.17563,4.68826 -3.86141,5.83502 -5.67296,9.48644 -11.71555,16.65473 -17.22452,20.43339 -13.7228,9.4126 -19.34207,13.76421 -29.02234,22.47523 -11.44276,10.29701 -29.3479,23.61756 -37.60838,27.9788 -3.09648,1.63483 -8.08633,3.2493 -11.08853,3.58768 -5.02183,0.56604 -5.60625,0.32822 -7.30457,-2.97243 -3.58566,-6.96863 -7.14038,-20.87304 -7.9046,-30.91905 -0.83713,-11.00442 2.36199,-37.90839 4.7764,-40.16864 0.93827,-0.87834 1.10527,-0.0205 0.56169,2.88515 -4.68477,25.0425 -3.4373,51.33351 3.04375,64.14819 2.7848,5.50625 5.02483,6.49911 10.9706,4.86258 5.87621,-1.61737 29.36168,-18.78136 51.39845,-37.56375 6.51465,-5.55256 14.38965,-11.72671 17.5,-13.72031 11.02394,-7.0659 11.53078,-7.56825 10.75488,-10.65969 -0.58475,-2.32984 -0.17305,-2.98168 2.08587,-3.30248 1.83541,-0.26065 2.95688,-1.40463 3.22389,-3.28863 0.2252,-1.58891 1.20957,-3.19597 2.1875,-3.57123 1.09722,-0.42104 1.77805,-2.46585 1.77805,-5.34023 0,-5.31207 0.97227,-6.86121 3.1644,-5.0419 1.98107,1.64415 5.5856,-3.6642 5.5856,-8.22585 0,-1.89117 1.19144,-4.25067 2.8125,-5.56984 2.75147,-2.23905 2.76465,-2.3703 0.60707,-6.04857 -2.17698,-3.71138 -2.16893,-3.7655 0.625,-4.19718 2.73907,-0.42319 2.69929,-0.55611 -1.23207,-4.11764 C 344.5593,96.544051 343.99474,95 347.0063,95 c 1.64654,0 1.86965,-0.952599 1.2443,-5.3125 -0.41909,-2.921875 -0.90379,-6.4375 -1.07711,-7.8125 -0.50829,-4.032429 -1.70208,-5.138291 -11.24195,-10.413895 -4.9811,-2.754572 -10.89128,-6.98125 -13.13373,-9.392618 -2.24246,-2.411367 -6.09894,-5.051541 -8.56996,-5.867052 -4.50363,-1.486327 -16.68858,-1.115026 -20.79035,0.633525 -1.5627,0.666164 -2.1875,0.358767 -2.1875,-1.076224 0,-3.678176 -12.57086,-2.219229 -42.20161,4.897831 -30.31683,7.281844 -31.5265,7.735742 -33.55495,12.5905 -1.89439,4.533912 -2.99273,5.010253 -6.8243,2.959653 -2.26214,-1.210654 -2.29682,-1.579778 -0.54283,-5.777655 C 210.37672,65.043047 210.58059,56.080589 208.5,54 c -2.5773,-2.577305 -4.72589,-1.709351 -13.21839,5.339764 -5.98417,4.967115 -11.08974,7.870822 -18.64782,10.605659 -14.7871,5.350599 -19.9171,8.221667 -27.49345,15.387067 -7.19389,6.803677 -7.78019,8.467551 -1.91498,5.434534 4.84991,-2.507989 6.29389,-0.989025 1.84721,1.943146 l -3.44757,2.273358 8.125,0.156129 c 9.45946,0.181773 16.5995,1.585388 13.75,2.703025 -1.03125,0.404479 -6.65625,1.042929 -12.5,1.418779 -17.41416,1.120019 -15.99833,0.342185 -22.90061,12.581079 -5.25187,9.31241 -6.35433,12.42286 -7.09906,20.02913 -0.75922,7.75414 -2.1935,11.67796 -10.32772,28.25401 -5.19533,10.58712 -10.3649,22.34307 -11.48795,26.12432 -5.133705,17.28498 -4.643225,47.81433 1.1158,69.45173 4.54017,17.05801 4.16899,16.73115 11.42194,10.05816 5.34367,-4.91638 5.78282,-5.66715 3.3401,-5.71025 -3.61228,-0.0638 -3.70825,-2.54964 -0.0984,-2.54964 2.52233,0 7.28494,-3.19039 7.28671,-4.88124 4.2e-4,-0.40906 -2.86661,-0.54517 -6.37119,-0.30245 -7.17488,0.49693 -11.14699,-1.63685 -5.62638,-3.02243 1.85066,-0.46449 5.57141,-0.49168 8.26834,-0.0604 l 4.90351,0.7841 1.88668,-6.57129 c 1.03768,-3.6142 2.76123,-10.77744 3.83013,-15.91829 2.43559,-11.71398 3.96309,-14.01927 13.27894,-20.04038 l 7.50888,-4.85323 10.22265,0.69623 c 9.88542,0.67325 32.34558,-1.68667 45.76506,-4.80858 4.9352,-1.14813 6.04592,-2.02607 8.2076,-6.48742 1.375,-2.83778 2.85532,-6.56585 3.28961,-8.2846 0.63065,-2.49592 0.81938,-2.11154 0.9375,1.90936 0.0814,2.76891 -0.72605,6.28209 -1.79419,7.80706 -1.88785,2.69529 -1.85357,2.73905 1.22722,1.56774 4.13935,-1.57377 4.4736,-0.87415 9.24017,19.34084 4.52634,19.19613 6.47469,33.57394 6.47469,47.77971 0,5.6899 0.47654,10.34529 1.05899,10.34529 0.58244,0 1.61801,1.25284 2.30127,2.78409 1.07683,2.41326 1.36052,1.89286 2.12992,-3.90713 0.48818,-3.68016 2.29531,-10.97987 4.01583,-16.22159 1.72053,-5.2417 3.16018,-11.78037 3.19922,-14.53037 0.0836,-5.8872 0.93878,-7.80237 2.43188,-5.44595 1.86075,2.93665 1.21934,9.17647 -2.11947,20.61861 -2.06164,7.0652 -3.8519,17.86846 -4.94285,29.82734 -1.11398,12.21116 -2.58299,20.99255 -4.21238,25.18047 -5.32656,13.69058 -13.71467,53.26909 -12.15245,57.34018 0.41472,1.08075 2.30913,1.85435 4.54095,1.85435 5.97837,0 11.34377,2.92236 18.04873,9.83057 7.41297,7.63769 6.64217,10.29397 -0.88835,3.06132 -3.59051,-3.44849 -7.8703,-5.92964 -13.3415,-7.73454 -4.43038,-1.46154 -8.5085,-2.65735 -9.0625,-2.65735 -0.55401,0 -1.00729,1.84641 -1.00729,4.10315 0,3.99707 0.14629,4.1095 5.65945,4.34945 6.63288,0.28867 9.09411,1.45196 15.70114,7.42102 7.39852,6.68411 6.16924,9.10805 -1.51588,2.98908 -5.76287,-4.58848 -10.53437,-6.67117 -17.96971,-7.84352 -2.30532,-0.36348 -2.56461,0.53053 -3.32969,11.48082 -0.47161,6.7499 -2.22493,16.60363 -4.0625,22.83138 -3.36002,11.38749 -3.97878,15.91858 -2.17382,15.91858 0.58243,0 1.66936,-1.26563 2.4154,-2.8125 1.2794,-2.65281 1.36121,-2.58184 1.44101,1.25 0.0996,4.78384 0.50275,4.90232 4.88744,1.43662 l 3.32216,-2.62587 0.42539,3.56035 0.4254,3.56035 2.27497,-2.80948 c 1.25123,-1.54521 2.62648,-2.80947 3.05609,-2.80947 z m 2.25565,-33.47536 c -5.93656,-2.28107 -7.18724,-4.71361 -1.875,-3.64684 5.60832,1.12623 10.3125,3.22059 10.3125,4.59126 0,1.72439 -2.10499,1.48878 -8.4375,-0.94442 z m 12.10206,-21.03245 c -2.35926,-2.4587 -8.17296,-7.37215 -12.91932,-10.91878 -5.55964,-4.15432 -7.91763,-6.58771 -6.62802,-6.83995 4.21188,-0.82384 14.74139,7.02673 20.86925,15.55961 5.02437,6.9963 4.35298,8.1132 -1.32191,2.19912 z m -1.6827,-11.27463 c -1.77752,-3.18035 -3.23186,-6.11814 -3.23186,-6.52841 0,-0.41029 -2.39063,-2.84671 -5.3125,-5.41426 -4.14396,-3.64147 -4.78421,-4.68002 -2.91072,-4.72159 1.32097,-0.0294 4.9433,2.59919 8.04962,5.84113 3.10631,3.24193 5.2004,4.78881 4.6535,3.4375 -2.86226,-7.0724 -4.6479,-13.20293 -4.21974,-14.48743 0.51749,-1.55245 9.02731,16.25636 10.42054,21.80741 1.02377,4.07902 -1.01035,4.45211 -2.92,0.53559 -1.21709,-2.49614 -1.2913,-2.35552 -0.65977,1.25 0.97361,5.5585 -0.0571,5.10029 -3.86907,-1.71994 z m 143.52421,-73.35357 c 20.92959,-13.08819 29.43954,-21.00741 35.79423,-33.3095 3.88745,-7.52575 4.85252,-7.73329 1.78142,-0.3831 -4.56171,10.91771 -16.87167,23.24985 -31.94155,31.9991 -5.56083,3.2285 -10.42843,4.69161 -5.6341,1.6935 z M 415,263.20792 c 0,-0.51124 2.55742,-3.83279 5.68316,-7.38123 5.44819,-6.18494 16.81684,-26.68802 16.81684,-30.32875 0,-0.96137 0.55429,-1.74794 1.23176,-1.74794 1.22091,0 -1.92952,9.07336 -5.78994,16.67522 C 428.55407,249.06549 415,266.27659 415,263.20792 Z m -124.42935,-7.24356 c -7.74001,-5.23834 -9.20235,-8.71291 -1.95197,-4.63797 5.51981,3.10231 9.70404,7.01755 8.63847,8.08314 -0.35431,0.3543 -3.36324,-1.19603 -6.6865,-3.44517 z M 108.75,238.75 c 0,-0.6875 3.06055,-1.25 6.80123,-1.25 3.74068,0 7.14887,0.5625 7.57377,1.25 0.48256,0.7808 -2.07035,1.25 -6.80123,1.25 -4.21585,0 -7.57377,-0.5542 -7.57377,-1.25 z M 120,228.125 c -2.40625,-0.92664 -7.36132,-1.7276 -11.01127,-1.7799 -4.08467,-0.0585 -6.33923,-0.57571 -5.86373,-1.3451 1.82652,-2.95538 21.50534,-0.33274 24.49026,3.26387 1.88675,2.27342 -1.51215,2.21143 -7.61526,-0.13887 z m 0.40221,-7.2826 c -5.98789,-2.21171 -6.70395,-3.80069 -1.33971,-2.97291 2.57813,0.39784 4.6875,0.48692 4.6875,0.19798 0,-0.28895 -2.95312,-2.0626 -6.5625,-3.94145 -5.48992,-2.85776 -6.09557,-3.48927 -3.7056,-3.86381 3.33364,-0.52244 13.4138,5.023 15.20113,8.36265 2.16831,4.05151 -1.01074,4.90284 -8.28082,2.21754 z m -4.02583,-24.64206 c -3.02424,-1.37213 -5.15984,-2.83354 -4.74578,-3.2476 1.41994,-1.41994 9.27603,0.84599 11.51652,3.32171 2.96713,3.27864 0.5609,3.2523 -6.77074,-0.0741 z m 133.24003,-3.43359 c -3.73382,-4.12583 -5.86641,-11.32723 -5.86641,-19.80994 0,-4.60541 0.42187,-7.95117 0.9375,-7.43502 0.51562,0.51615 0.96007,4.68802 0.98768,9.27082 0.0522,8.673 2.90095,16.89353 6.30722,18.20064 3.11733,1.19623 7.77276,-1.45681 16.02071,-9.12986 4.40493,-4.09789 11.01562,-8.95648 14.69043,-10.79686 3.6748,-1.8404 8.65021,-4.78683 11.05646,-6.54762 l 4.375,-3.20145 -2.92123,3.22505 c -1.60666,1.77379 -6.30844,5.03044 -10.44839,7.23702 -4.13995,2.20657 -11.24646,7.3825 -15.79223,11.50206 -10.98705,9.9569 -15.522,11.71145 -19.34674,7.48516 z M 130,192.46056 c 0,-0.70919 1.17616,-4.78731 2.61369,-9.0625 2.5926,-7.71037 4.71085,-11.49019 5.81849,-10.38255 0.93099,0.93099 -6.02676,20.73449 -7.28483,20.73449 -0.63104,0 -1.14735,-0.58025 -1.14735,-1.28944 z m -10,-12.20897 c -6.8224,-2.83525 -7.58913,-3.43853 -4.78248,-3.76295 3.59426,-0.41547 13.53248,4.01792 13.53248,6.03676 0,1.50306 0.9026,1.73761 -8.75,-2.27381 z m 5.55141,-15.91334 c -2.34973,-1.85133 -2.33074,-1.90071 0.60068,-1.5625 1.6649,0.19209 3.25865,1.05237 3.54167,1.91175 0.70023,2.12625 -1.20421,1.96569 -4.14235,-0.34925 z m 44.16512,-18.66736 c -1.56028,-2.97792 -1.94117,-3.13384 -3.39021,-1.38785 -3.42946,4.13223 -3.73262,1.69658 -0.57201,-4.59554 4.03154,-8.02593 4.13384,-8.14101 5.40642,-6.08195 0.82638,1.33712 1.6979,1.2171 4.50161,-0.61996 2.69931,-1.76867 3.33132,-1.86803 2.82616,-0.44435 -1.2325,3.47347 1.38019,6.20876 5.93048,6.20876 2.38206,0 4.33102,0.55106 4.33102,1.2246 0,1.56185 -9.16375,6.2754 -12.2002,6.2754 -1.26489,0 -2.92434,0.62454 -3.68765,1.38785 -1.01714,1.01714 -1.85737,0.49172 -3.14562,-1.96696 z m 47.14136,-6.20122 c 1.11661,-10.88666 1.94982,-13.35403 3.28799,-9.73663 1.24003,3.35215 -0.55075,14.94635 -2.61102,16.90467 -1.24938,1.18756 -1.38581,-0.257 -0.67697,-7.16804 z m 232.13546,-18.32363 c -2.95991,-3.33922 -9.70991,-9.13297 -15,-12.87499 -5.29009,-3.74203 -14.32207,-11.069731 -20.07107,-16.283793 -5.87158,-5.325231 -13.81528,-11.111202 -18.125,-13.201745 -4.21975,-2.046898 -6.95312,-3.736006 -6.07413,-3.753573 3.82908,-0.07652 17.07461,8.066028 24.65279,15.155033 4.53257,4.240003 13.94627,11.979358 20.91932,17.198558 11.36418,8.50588 21.01827,18.03009 19.60624,19.34248 -0.28957,0.26914 -2.94824,-2.24274 -5.90815,-5.58197 z M 235.93539,114.0625 c -0.34798,-3.26562 -1.04223,-6.92187 -1.54278,-8.125 -0.63508,-1.52652 -0.33241,-2.1875 1.00171,-2.1875 2.54245,0 5.01786,7.77774 3.97973,12.50433 -1.21261,5.52097 -2.71912,4.5607 -3.43866,-2.19183 z m -10.75387,0.53122 C 223.59829,112.68603 221.25,101.62749 221.25,96.079388 c 0,-4.248585 2.16176,-4.777472 3.13456,-0.766888 0.87346,3.601027 2.89108,20.20283 2.51022,20.65521 -0.15869,0.18849 -0.92965,-0.42981 -1.71325,-1.37399 z m 171.57472,-2.23921 c -3.66458,-4.07125 -11.46008,-9.11199 -26.96103,-17.433605 -7.79362,-4.18396 -15.01396,-8.498378 -16.04521,-9.587592 -1.04031,-1.098788 0.62906,-0.583057 3.75,1.158516 3.09375,1.726398 11.76648,6.456366 19.27273,10.511039 12.38572,6.690442 27.10999,17.825072 23.73351,17.947502 -0.75283,0.0273 -2.44033,-1.14084 -3.75,-2.59586 z M 155.625,108.02981 c -3.93608,-2.47356 -6.02194,-2.99016 -9.80274,-2.42779 -3.5774,0.53212 -4.66255,0.30726 -4.2533,-0.88132 0.97011,-2.81749 12.34264,-1.91594 16.91665,1.34104 3.72345,2.65133 5.2706,5.24053 3.07689,5.14925 -0.51563,-0.0215 -3.1875,-1.45299 -5.9375,-3.18118 z M 323.75,92.764862 c 0,-8.991552 -3.84099,-17.173781 -10,-21.302432 -5.1946,-3.482166 -11.01386,-3.148455 -20.70315,1.187242 -5.52941,2.474272 -8.34466,2.772861 -27.046,2.868536 -16.09841,0.08236 -21.24613,-0.282832 -22.5,-1.596202 -1.36059,-1.425146 -1.116,-1.539167 1.49915,-0.698866 1.71875,0.552269 10.71875,1.081762 20,1.176651 15.45329,0.15799 17.76617,-0.125393 27.45276,-3.363632 C 298.27054,69.091271 304.79672,67.5 306.95541,67.5 c 5.6077,0 11.9771,4.724126 15.1705,11.251806 C 325.29521,85.230259 327.40524,100 325.16146,100 324.27541,100 323.75,97.30671 323.75,92.764862 Z m -110,-1.321127 c 0,-5.490702 0.56804,-7.820335 2.28593,-9.375 4.11147,-3.720829 7.5428,-2.48889 15.65102,5.619127 8.2766,8.276394 6.39862,7.637478 -3.1959,-1.087298 -6.32436,-5.751054 -8.50049,-6.412555 -11.43655,-3.476498 -1.40958,1.409584 -1.69818,3.578248 -1.1644,8.75 0.488,4.728263 0.2646,6.875934 -0.71522,6.875934 -0.90399,0 -1.42488,-2.670945 -1.42488,-7.306265 z m 36.83719,-2.068449 c -4.7917,-3.093592 -11.24344,-6.561565 -14.33719,-7.706606 -6.24263,-2.310483 -10.12338,-5.043428 -5,-3.521159 4.32319,1.284518 16.94642,7.700668 22.89397,11.636575 3.89808,2.579619 7.07671,3.432718 15.08489,4.048568 l 10.14614,0.780263 -10.03781,0.193537 c -9.90505,0.190976 -10.15303,0.11915 -18.75,-5.431178 z m 53.74633,343.159134 c 1.28568,-1.06701 1.91648,-3.79532 1.91648,-8.28898 0,-9.17058 -5.31482,-47.50903 -10.46587,-75.49544 -2.34096,-12.71875 -4.65721,-25.9375 -5.14724,-29.375 l -0.89095,-6.25 -2.85784,5.625 c -6.2898,12.38001 -20.71341,56.59135 -19.01621,58.28855 0.27447,0.27447 3.12158,0.61317 6.32692,0.75269 3.20535,0.1395 5.65129,0.78347 5.43543,1.43105 -0.34995,1.04983 -7.03608,5.11998 -10.07445,6.13278 -2.15812,0.71937 1.72272,6.0483 3.95383,5.42918 1.16127,-0.32224 3.51763,-0.94345 5.23638,-1.38048 l 3.125,-0.79458 -3.35359,3.06327 c -1.84446,1.68479 -4.09446,3.32696 -5,3.64927 -0.90552,0.32231 -1.28534,0.97722 -0.84402,1.45537 0.44132,0.47814 2.83195,0.0214 5.3125,-1.01509 2.48056,-1.03645 4.51011,-1.41952 4.51011,-0.85128 0,1.62934 -3.27585,3.92867 -7.02614,4.93166 -5.53909,1.48137 -5.00299,3.70613 1.00971,4.19018 l 5.39143,0.43404 -4.66074,2.14729 c -5.26919,2.42761 -14.93227,16.02126 -14.40192,20.26008 0.38192,3.05256 6.63563,5.2993 19.03731,6.83943 10.98302,1.36395 19.98883,0.89171 22.48387,-1.17899 z M 374.6754,428.75 c 3.91213,-1.375 8.9745,-2.5 11.24971,-2.5 5.43165,0 6.02576,-1.71118 8.34445,-24.03391 1.24679,-12.00316 2.91985,-20.90875 5.11302,-27.21609 5.83382,-16.77756 7.59858,-31.21455 5.98267,-48.9425 -1.79571,-19.70058 -2.74889,-22.30973 -8.14681,-22.30053 -19.54101,0.0333 -24.99921,11.09265 -28.49281,57.73192 -1.18017,15.75511 -1.14019,22.76386 0.2032,35.625 2.43593,23.32088 2.2733,27.07039 -1.34112,30.91773 -3.63826,3.87277 -2.27906,4.01053 7.08769,0.71838 z m -8.37668,-2.1875 c 2.56003,-3.22325 2.66307,-4.13868 1.65323,-14.6875 -1.83583,-19.17735 -1.14959,-59.59991 1.28324,-75.58728 2.15426,-14.1568 5.64273,-24.8429 9.02681,-27.65142 3.17092,-2.63164 1.82745,-3.27294 -8.31265,-3.96795 -11.09626,-0.76056 -22.64302,-5.3635 -34.37531,-13.7032 -8.06674,-5.73409 -14.02113,-8.71655 -14.8204,-7.42329 -0.35104,0.56799 2.68361,10.83288 6.74367,22.81086 11.22939,33.12895 12.71108,45.61077 10.02859,84.48172 -1.00906,14.62214 -1.56227,17.30415 -4.95587,24.02685 -4.55722,9.02779 -4.68465,10.64135 -1.04189,13.19283 2.13029,1.49212 6.19002,1.94588 17.40927,1.94588 14.46605,0 14.66194,-0.0387 17.36132,-3.4375 z m -97.62715,-17.40328 c 0.91184,-5.38913 -0.59542,-15.71197 -2.95038,-20.2066 -1.49308,-2.84963 -1.65609,-2.65151 -3.64212,4.42662 -2.45442,8.74752 -2.52408,10.67271 -0.69473,19.20267 l 1.38435,6.45496 2.5467,-2.54671 c 1.4007,-1.40068 2.91097,-4.69961 3.35618,-7.33094 z M 433.87374,402.5 c 1.29105,-7.13754 1.79587,-8.40544 2.11521,-5.3125 0.65661,6.35956 2.38146,4.77345 3.39834,-3.125 0.69895,-5.42908 1.17141,-6.57588 1.93116,-4.6875 0.55321,1.375 1.10295,4.46875 1.22165,6.875 l 0.2158,4.375 1.03206,-4.375 c 1.3496,-5.72104 1.58233,-10.95126 1.37991,-31.01127 -0.0984,-9.74584 -0.64347,-16.34234 -1.31616,-15.92659 -1.21749,0.75245 -1.97856,-2.19262 -3.25854,-12.6092 -0.66344,-5.3992 -0.17626,-7.95268 3.05884,-16.03195 3.29279,-8.22335 5.21658,-17.45625 3.22154,-15.4612 -0.97876,0.97875 -10.40979,32.78844 -13.83545,46.66521 -2.1345,8.64653 -3.43199,18.66555 -4.2088,32.5 -0.61766,11 -1.49139,20.9336 -1.9416,22.07468 -0.45022,1.14107 0.14663,3.9412 1.32634,6.2225 1.9284,3.72911 2.23674,3.89823 3.05444,1.67532 0.50022,-1.35987 1.67259,-6.69125 2.60526,-11.8475 z M 95.078837,386.18878 92.554905,380.625 l -0.02745,6.1875 c -0.0151,3.40313 -0.490605,5.65312 -1.056681,5 -0.566075,-0.65313 -2.872463,-7.36435 -5.125305,-14.91384 -4.095345,-13.72387 -7.929329,-22.40527 -12.363205,-27.99437 -2.187534,-2.75748 -2.616906,-2.84637 -5.981977,-1.23829 -5.064171,2.42001 -5.527111,6.89979 -0.89946,8.70385 1.938297,0.75564 4.775679,1.45967 6.305293,1.56452 2.091237,0.14334 3.545845,1.89603 5.863959,7.06563 4.335181,9.66782 5.664193,16.462 5.699366,29.13627 0.03251,11.71393 1.615234,13.53977 3.20006,3.6916 0.837361,-5.20338 1.075901,-5.55942 1.894635,-2.82787 0.515164,1.71875 0.992732,2.62726 1.061263,2.01892 0.242151,-2.14957 5.128102,5.29228 5.369425,8.17824 0.134655,1.61031 0.439027,-0.75596 0.676384,-5.25839 0.328371,-6.22882 -0.171933,-9.51657 -2.092372,-13.75 z m 24.037163,8.9588 c 4.20338,8.47847 3.95208,2.82386 -0.33672,-7.57658 -2.0903,-5.06902 -3.59682,-9.42012 -3.34783,-9.66911 0.24899,-0.24899 1.94925,1.80872 3.77836,4.5727 3.72094,5.62271 5.78745,6.94975 2.47276,1.58791 C 119.0519,379.80714 109.83957,370 108.47297,370 c -0.55359,0 -0.12597,2.10744 0.95025,4.6832 l 1.95676,4.6832 -4.55483,-4.3707 -4.55484,-4.3707 2.50621,5 c 3.08441,6.15355 4.63909,13.125 2.92697,13.125 -0.68484,0 -1.53522,-0.70313 -1.88974,-1.5625 -0.35452,-0.85938 -0.32216,0.40625 0.0719,2.8125 0.39408,2.40625 1.48282,5.78125 2.41941,7.5 l 1.70289,3.125 -0.68952,-3.75 -0.68952,-3.75 3.49804,4.06489 3.49803,4.06487 0.38773,-5.79231 0.38772,-5.79231 2.71555,5.47744 z m 329.67247,-8.69523 c -0.92451,-1.58401 -1.20266,-0.88994 -1.17123,2.92265 0.036,4.37315 0.18806,4.63359 1.21246,2.07735 0.73838,-1.84253 0.72315,-3.69039 -0.0412,-5 z m -347.96062,1.98515 c -0.34677,-0.85938 -0.63048,-0.15625 -0.63048,1.5625 0,1.71875 0.28371,2.42187 0.63048,1.5625 0.34677,-0.85938 0.34677,-2.26563 0,-3.125 z m -18.635229,-5.65655 c -0.36003,-3.97048 -1.98503,-10.49043 -3.61111,-14.4888 -2.812784,-6.91634 -3.290731,-7.3896 -9.831511,-9.73514 -11.000364,-3.94475 -12.346638,-4.07952 -15.22034,-1.52361 -3.137526,2.79056 -7.253571,11.33023 -7.153524,14.8416 0.05126,1.79896 0.446065,1.44844 1.407933,-1.25 1.641602,-4.60537 8.471168,-14.78643 9.337655,-13.91994 0.346908,0.3469 -0.821277,2.53444 -2.595968,4.86118 -1.774691,2.32673 -4.087999,6.67158 -5.140682,9.65521 -1.756289,4.97785 -1.73934,5.61774 0.205736,7.76701 5.558162,6.1417 17.106044,10.79055 27.145301,10.92792 l 6.11111,0.0836 -0.6546,-7.21905 z M 54.31493,378.63384 c -1.099599,-2.12639 -1.676544,-4.18889 -1.2821,-4.58334 0.394444,-0.39444 0.857795,-0.48279 1.02967,-0.19634 2.66461,4.44103 4.323741,8.64584 3.411462,8.64584 -0.637868,0 -2.059433,-1.73978 -3.159032,-3.86616 z M 90.690339,378.125 c -0.549309,-3.66305 -0.380819,-5.625 0.48307,-5.625 0.729625,0 1.351962,0.70312 1.382971,1.5625 0.03101,0.85937 0.877951,3.25 1.882094,5.3125 1.651928,3.39305 1.776176,3.45254 1.305302,0.625 -0.286226,-1.71875 -0.896612,-4.95313 -1.356412,-7.1875 -0.53312,-2.59066 -0.347147,-4.0625 0.513317,-4.0625 0.742125,0 1.38384,0.70312 1.426034,1.5625 0.04219,0.85937 1.4494,4.375 3.127127,7.8125 l 3.050408,6.25 -0.47894,-5.98505 c -0.26516,-3.31364 -2.218887,-9.5194 -4.377124,-13.9034 C 95.504184,360.13146 93.75,356.0213 93.75,355.35284 c 0,-2.29735 -4.416304,-5.20632 -10.288465,-6.77689 -3.23465,-0.86514 -6.230515,-1.22364 -6.657479,-0.79668 -0.426965,0.42697 0.665164,2.8976 2.426952,5.49032 1.761787,2.5927 5.033993,10.51143 7.271568,17.59721 2.237575,7.08576 4.284985,12.8832 4.5498,12.8832 0.264817,0 0.1019,-2.53125 -0.362037,-5.625 z M 456.794,323.58674 c 0.47243,-1.12105 -0.0192,-6.66757 -1.09252,-12.32559 -1.07332,-5.65803 -1.95148,-12.47519 -1.95148,-15.14924 0,-5.236 -2.09668,-6.66486 -3.00724,-2.04941 -3.78899,19.20539 -4.88431,72.26945 -1.65777,80.3125 1.33034,3.31625 1.8135,0.71375 4.17721,-22.5 1.47008,-14.4375 3.05939,-27.16723 3.5318,-28.28826 z M 130.57571,353.125 c 9.90681,-20.03318 14.79998,-62.06864 10.622,-91.25 -1.91497,-13.3753 -2.26573,-14.08101 -4.8779,-9.81379 -1.19986,1.96009 -7.59097,8.72583 -14.20248,15.03498 l -12.02091,11.47118 1.87887,9.01113 c 2.15379,10.32961 2.47927,31.82485 0.60832,40.17344 -2.16975,9.68184 -3.76438,12.66042 -10.38359,19.39537 -6.221166,6.32993 -6.344681,6.59474 -4.187682,8.9782 1.222403,1.35074 2.932552,2.18344 3.800332,1.85044 0.86778,-0.333 4.59264,2.87464 8.27746,7.12809 l 6.69968,7.73354 4.72942,-5.48129 c 2.60119,-3.01472 6.67661,-9.41879 9.05648,-14.23129 z M 118.75,314.4358 c 0,-1.08509 9.28846,-9.36566 10.54636,-9.40198 1.47679,-0.0426 -5.41963,7.27362 -8.35886,8.86773 -1.20312,0.65252 -2.1875,0.89294 -2.1875,0.53425 z m -1.25,-17.65695 c 0,-2.34998 6.6368,-9.27885 8.88771,-9.27885 0.88654,0 0.18623,1.50872 -1.59561,3.4375 -1.74659,1.89062 -3.52167,4.42187 -3.94463,5.625 -0.95767,2.72415 -3.34747,2.8786 -3.34747,0.21635 z m 0,-15.97591 c 0,-1.04797 0.61251,-2.28395 1.36114,-2.74663 2.28849,-1.41436 13.64205,-4.13421 13.5903,-3.25567 -0.0401,0.68092 -9.86263,5.99673 -13.84187,7.49102 C 117.99931,282.52084 117.5,281.8509 117.5,280.80294 Z M 105.625,362.5 c -1.96226,-2.04816 -3.84899,-3.44268 -4.19274,-3.09892 -0.34375,0.34374 0.98048,2.30076 2.94274,4.34892 1.96226,2.04816 3.84899,3.44267 4.19274,3.09892 0.34375,-0.34375 -0.98048,-2.30076 -2.94274,-4.34892 z m -5.58774,-1.18039 c -0.715388,-1.33671 -1.94709,-2.82986 -2.737118,-3.31812 -0.962517,-0.59488 -1.102287,-0.30855 -0.423652,0.86787 2.680965,4.6475 5.51069,6.84112 3.16077,2.45025 z M 458.39531,329.0625 c -0.2864,-1.89063 -0.52073,-0.34375 -0.52073,3.4375 0,3.78125 0.23433,5.32812 0.52073,3.4375 0.28642,-1.89063 0.28642,-4.98438 0,-6.875 z M 243.36624,292.83629 c -0.31693,-1.21622 -0.59708,-0.52379 -0.62255,1.53871 -0.0255,2.0625 0.23382,3.05757 0.57623,2.21129 0.3424,-0.84629 0.36324,-2.53379 0.0464,-3.75 z M 117.91407,268.75 c 10.29163,-8.82355 14.20148,-13.54694 19.22938,-23.2305 6.22594,-11.99094 10.35655,-23.89836 10.35655,-29.85506 0,-5.24873 -2.1017,-5.74359 -6.8034,-1.60194 -2.519,2.21895 -3.7051,5.3186 -5.62027,14.6875 -4.26532,20.86557 -8.11489,29.13397 -17.75917,38.14449 -3.68069,3.43881 -8.09841,7.25635 -9.81716,8.48341 -2.97097,2.12105 -2.9171,2.12051 1.09307,-0.0113 2.31994,-1.23307 6.51439,-4.21071 9.321,-6.61696 z M 84.102931,240.04841 97.5,234.81042 l 0,-4.90521 C 97.5,227.20735 96.998747,225 96.386105,225 c -0.612643,0 -3.806321,2.22489 -7.097062,4.9442 -7.540731,6.2313 -18.229529,11.96024 -26.92945,14.43352 l -6.734593,1.91458 7.540431,-0.50295 c 4.93652,-0.32926 12.166793,-2.31176 20.9375,-5.74094 z M 73.125,435.85146 c -2.75,-0.60333 -5.984375,-1.60901 -7.1875,-2.23481 -1.42446,-0.74094 -3.048663,-0.60003 -4.656301,0.40396 -4.030126,2.51685 -5.422171,-0.35996 -6.015046,-12.43076 -0.621784,-12.65935 -2.125508,-15.79219 -3.34035,-6.95923 -1.059879,7.70624 -3.129107,11.49024 -3.156662,5.77261 -0.01296,-2.68874 -0.988556,-4.73432 -3.020076,-6.33232 -2.770921,-2.1796 -3.106251,-3.70096 -4.375,-19.84892 -0.755735,-9.61861 -1.470502,-24.76908 -1.58837,-33.66769 L 39.571391,344.375 38.683362,361.25 c -0.488415,9.28125 -1.05853,25.03125 -1.266922,35 -0.208393,9.96875 -0.588315,15.03125 -0.844273,11.25 C 35.995162,398.97593 33.75,395.95947 33.75,403.70834 c 0,7.31857 -1.064044,5.83677 -2.30439,-3.20914 -0.978306,-7.13483 -1.044094,-6.87022 -2.026707,8.15155 -0.84715,12.95088 -1.276854,15.16844 -2.59099,13.37125 -1.190354,-1.62791 -1.734909,-1.75641 -2.227978,-0.52575 -0.514112,1.28317 -0.673504,1.26476 -0.751251,-0.0867 -0.08019,-1.39412 -0.455359,-1.41955 -2.002299,-0.1357 -1.591684,1.32098 -1.774598,1.24365 -1.116264,-0.47195 0.433043,-1.12854 1.507076,-2.05185 2.38674,-2.05185 2.343359,0 3.33379,-6.01626 4.218538,-25.625 0.764992,-16.9546 0.838297,-17.31719 2.352101,-11.63398 0.859375,3.22632 1.5625,7.02319 1.5625,8.4375 0,1.41432 0.5625,2.57148 1.25,2.57148 0.6875,0 1.289535,-2.67188 1.337856,-5.9375 0.06127,-4.14083 0.379065,-5.19245 1.050213,-3.47531 0.565122,1.44586 1.306106,-5.00368 1.795145,-15.625 C 38.008821,338.67157 40.308436,310 41.291991,310 c 0.49746,0 0.627789,12.23437 0.28962,27.1875 -0.584253,25.83452 0.993579,63.33366 2.869485,68.19684 0.47933,1.24264 1.632207,1.96744 2.561945,1.61066 1.095315,-0.42031 2.043147,0.71246 2.692305,3.21765 0.895445,3.45564 1.174079,2.84146 2.62303,-5.78173 0.891638,-5.30642 1.851455,-9.41776 2.132928,-9.13628 0.281472,0.28147 1.106651,8.8879 1.833731,19.1254 0.72708,10.2375 1.522114,18.81377 1.766741,19.0584 0.244628,0.24463 1.58984,-0.27033 2.98936,-1.14434 2.087174,-1.30346 3.15432,-1.26285 5.936565,0.22589 2.267657,1.2134 6.862575,1.76878 13.862443,1.67553 5.758754,-0.0768 10.31395,0.0143 10.122659,0.20224 -1.361629,1.33775 -13.729014,2.31736 -17.847803,1.4137 z"
       id="path3512"
       inkscape:connector-curvature="0" />
  </g>
</svg>
